<?xml version="1.0" encoding="UTF-8"?>
<svg id="_レイヤー_2" data-name="レイヤー_2" xmlns="http://www.w3.org/2000/svg" viewBox="0 0 108 33.63">
  <defs>
    <style>
      .cls-1 {
        fill: #fff;
      }
    </style>
  </defs>
  <g id="_レイヤー_1-2" data-name="レイヤー_1">
    <g id="Freeasyロゴ">
      <g>
        <path class="cls-1" d="M0,17.77V6.24C0,2.22,2.36,0,6.65,0h7.43v3.68h-7.23c-2.16,0-3.17.81-3.17,2.54v1.27h10.3v3.53H3.68v6.76H0Z"/>
        <path class="cls-1" d="M16.46,17.77V7.96c0-2.93,1.22-4.24,3.96-4.24h5.84v3.27h-5.05c-.99,0-1.37.39-1.37,1.37v9.4h-3.38Z"/>
        <path class="cls-1" d="M33.09,17.77c-3.23,0-5-1.69-5-4.75v-4.55c0-3.06,1.78-4.75,5-4.75h4.33c3.17,0,4.85,1.54,4.85,4.45s-1.59,4.19-4.88,4.19h-6v.61c0,1,.57,1.5,1.7,1.5h8.52v3.3h-8.52ZM37.32,9.56c1.43,0,1.63-.63,1.63-1.25,0-.89-.51-1.32-1.55-1.32h-4.3c-1.13,0-1.7.5-1.7,1.5v1.07h5.93Z"/>
        <path class="cls-1" d="M49.6,17.77c-3.23,0-5-1.69-5-4.75v-4.55c0-3.06,1.78-4.75,5-4.75h4.33c3.17,0,4.85,1.54,4.85,4.45s-1.59,4.19-4.88,4.19h-6v.61c0,1,.57,1.5,1.7,1.5h8.52v3.3h-8.52ZM53.83,9.56c1.43,0,1.63-.63,1.63-1.25,0-.89-.51-1.32-1.55-1.32h-4.3c-1.13,0-1.7.5-1.7,1.5v1.07h5.93Z"/>
        <path class="cls-1" d="M65.49,17.77c-3.16,0-4.82-1.53-4.82-4.42s1.59-4.19,4.85-4.19h6v-.67c0-1-.57-1.5-1.7-1.5h-8.34v-3.27h8.37c3.23,0,5,1.69,5,4.75v6.27c0,2.26-.78,3.03-3.1,3.03h-6.25ZM65.57,11.98c-1.39,0-1.58.59-1.58,1.22,0,.59.17,1.27,1.53,1.27h5.62c.37,0,.39-.08.39-.34v-2.16h-5.95Z"/>
        <path class="cls-1" d="M77.54,17.77v-3.3h8.11c1.18,0,1.4-.39,1.4-1.12s-.25-1.15-1.55-1.15h-3.16c-3.29,0-4.95-1.43-4.95-4.24s1.62-4.24,4.7-4.24h7.76v3.27h-7.73c-1.16,0-1.4.47-1.4,1.17,0,.62.11,1.1,1.55,1.1h3.14c3.35,0,4.98,1.35,4.98,4.12s-1.68,4.39-4.72,4.39h-8.11Z"/>
        <g>
          <polygon class="cls-1" points="103.64 13.87 104.19 12.59 100.64 12.41 99.93 14.06 103.64 13.87"/>
          <polygon class="cls-1" points="101.58 10.22 100.87 11.87 104.58 11.68 105.12 10.4 101.58 10.22"/>
          <polygon class="cls-1" points="107.4 5.12 108 3.72 104.38 3.72 103.7 5.3 107.4 5.12"/>
          <path class="cls-1" d="M95.81,14.4l.41,1.03c.42,1.08.94,1.72,2.31,1.84l-2.51,5.87h3.64l3.59-8.36-7.44-.38Z"/>
          <polygon class="cls-1" points="102.52 8.03 101.81 9.68 105.52 9.49 106.07 8.21 102.52 8.03"/>
          <path class="cls-1" d="M99.33,14.09s-.05-.11-.08-.21l-.64-1.57-3.21-.16,3.08-.16-.79-1.96-1.39-.07,1.33-.07-2.5-6.17h-3.58l4.2,10.55,3.57-.18Z"/>
          <polygon class="cls-1" points="103.47 5.85 102.76 7.49 106.45 7.31 107 6.03 103.47 5.85"/>
        </g>
      </g>
      <g>
        <path class="cls-1" d="M34.64,24.11c0,3.04-.81,5.38-2.42,7.03-1.43,1.45-3.38,2.26-5.86,2.44v-2c1.69-.24,3.04-.85,4.04-1.82,1-.97,1.6-2.26,1.79-3.87h-7.06v-2.04h9.51v.27Z"/>
        <path class="cls-1" d="M39.51,29.71h-2.25v-6.02h2.25v6.02ZM46.26,27.28c0,2.27-.69,3.92-2.07,4.94-1.24.92-3.13,1.39-5.67,1.41v-2c1.97-.11,3.35-.44,4.13-1,.88-.64,1.33-1.77,1.33-3.38v-3.57h2.29v3.59Z"/>
        <path class="cls-1" d="M58.51,29.09h-9.86v-2.09h9.86v2.09Z"/>
        <path class="cls-1" d="M65.96,29.33c-1.84-.21-3.59-.34-5.25-.39v-2c1.76.06,3.51.18,5.25.38v2.01ZM66.09,26.13c-2.01-.23-3.76-.37-5.25-.41v-2c1.81.06,3.56.19,5.25.38v2.04ZM70.53,25.34c-.18,2.94-1.13,5.07-2.86,6.41-1.54,1.18-3.78,1.78-6.73,1.8v-2.13c2.42-.05,4.17-.51,5.27-1.37,1.17-.92,1.84-2.49,2.03-4.7h2.29ZM68.93,24.93h-1.28v-1.55h1.28v1.55ZM70.59,24.93h-1.28v-1.55h1.28v1.55Z"/>
        <path class="cls-1" d="M82.2,29.09h-9.86v-2.09h9.86v2.09Z"/>
      </g>
    </g>
  </g>
</svg>