<?xml version="1.0" encoding="UTF-8"?>
<svg id="_レイヤー_2" data-name="レイヤー 2" xmlns="http://www.w3.org/2000/svg" viewBox="0 0 381.6 47.83">
  <defs>
    <style>
      .cls-1 {
        fill: none;
        stroke: #fff;
        stroke-miterlimit: 10;
        stroke-width: 2px;
      }

      .cls-2 {
        fill: #fff;
        stroke-width: 0px;
      }
    </style>
  </defs>
  <g id="_レイヤー_1-2" data-name="レイヤー 1">
    <g>
      <path class="cls-1" d="M10.49,31.45c0,4.23.04,5.85.36,7.83H1.17c.31-1.98.41-3.78.41-7.69V8.28c0-2.97-.09-4.46-.36-6.57,1.84.09,3.1.13,6.57.13h13c3.96,0,5.44-.04,7.56-.31v8.55c-1.98-.23-3.73-.32-7.51-.32h-10.35v7.38h8.46c3.51,0,5.22-.09,7.2-.32v8.33c-1.98-.22-3.78-.32-7.2-.32h-8.46v6.62Z"/>
      <path class="cls-2" d="M51.98,19.93c-2.07-.63-3.19-.86-4.59-.86-2.29,0-4.05.81-5.35,2.43-.85,1.08-1.17,2.02-1.35,4v7.02c0,2.88.09,4.59.36,6.75h-9.31c.27-2.25.36-3.87.36-6.79v-13.86c0-3.29-.09-4.86-.36-6.79h8.96v3.55c2.21-2.88,4.9-4.09,9-4.09,1.44,0,2.34.09,4.46.54l-2.16,8.1Z"/>
      <path class="cls-2" d="M63.95,28.08c.45,3.64,2.57,5.58,6.12,5.58,1.8,0,3.38-.58,4.54-1.67.67-.63.99-1.12,1.35-2.29l7.83,2.21c-1.04,2.34-1.71,3.37-2.97,4.63-2.57,2.52-6.17,3.82-10.62,3.82s-7.87-1.26-10.44-3.82c-2.65-2.7-4.09-6.53-4.09-10.98,0-8.91,5.71-14.8,14.31-14.8,7.02,0,11.92,3.83,13.5,10.53.36,1.44.54,3.33.68,5.89,0,.18,0,.45.04.9h-20.25ZM75.65,21.87c-.63-2.88-2.57-4.41-5.67-4.41s-5.13,1.44-5.89,4.41h11.56Z"/>
      <path class="cls-2" d="M94.91,28.08c.45,3.64,2.57,5.58,6.12,5.58,1.8,0,3.38-.58,4.54-1.67.67-.63.99-1.12,1.35-2.29l7.83,2.21c-1.04,2.34-1.71,3.37-2.97,4.63-2.57,2.52-6.17,3.82-10.62,3.82s-7.87-1.26-10.44-3.82c-2.65-2.7-4.09-6.53-4.09-10.98,0-8.91,5.71-14.8,14.31-14.8,7.02,0,11.92,3.83,13.5,10.53.36,1.44.54,3.33.68,5.89,0,.18,0,.45.04.9h-20.25ZM106.61,21.87c-.63-2.88-2.57-4.41-5.67-4.41s-5.13,1.44-5.89,4.41h11.56Z"/>
      <path class="cls-2" d="M126.63,30.1c.45,2.34,1.98,3.38,4.99,3.38,2.7,0,4.23-.76,4.23-2.16,0-.68-.36-1.26-.99-1.62-.63-.36-1.21-.54-3.69-1.04-3.42-.67-5.17-1.12-6.66-1.62-2.16-.81-3.64-1.84-4.5-3.19-.72-1.21-1.12-2.75-1.12-4.28,0-5.4,4.54-8.68,12.06-8.68,4.28,0,7.47.95,9.58,2.88,1.49,1.3,2.21,2.61,2.92,5.13l-8.68.95c-.22-1.85-1.35-2.66-3.78-2.66s-3.78.76-3.78,1.93.94,1.67,5.4,2.66c4.41.95,5.8,1.35,7.38,2.16,2.92,1.44,4.32,3.64,4.32,6.88,0,2.38-.81,4.54-2.29,5.98-2.16,2.16-5.85,3.29-10.67,3.29-5.67,0-9.67-1.53-11.83-4.5-.9-1.26-1.35-2.34-1.8-4.5l8.91-.99Z"/>
      <path class="cls-2" d="M148.81,17.86c-1.93-4.5-2.11-4.9-2.7-6.03h9.76c.22,1.44.81,3.38,1.75,5.8l4.14,10.39,4-10.21c1.26-3.1,1.67-4.41,1.93-5.98h9.76q-1.12,2.34-2.7,6.03l-10.3,23.8c-1.8,4.23-5.04,6.16-10.17,6.16-1.98,0-3.69-.22-6.17-.76l.99-7.15c1.48.76,2.34.99,3.51.99,1.71,0,2.97-.76,3.64-2.11l.95-1.94-8.42-18.99Z"/>
      <path class="cls-2" d="M181.12,15.43q1.58-.18,5.17-.85c6.21-1.26,10.48-1.8,14.13-1.8,4.41,0,7.42.86,9.85,2.79,2.43,1.94,3.73,4.91,3.73,8.5,0,6.88-4.45,12.01-12.46,14.44-3.11.95-3.92,1.08-10.21,1.8-.54-2.79-1.08-4.27-2.75-7.2,4.23,0,7.56-.45,10.93-1.49,3.06-.94,5.54-2.79,6.43-4.86.36-.77.54-1.71.54-2.66,0-2.83-2.38-4.5-6.48-4.5-3.01,0-6.75.54-11.79,1.67-3.02.67-4,.95-5.62,1.58l-1.49-7.42Z"/>
      <path class="cls-2" d="M220.23,5.13c.76.04,1.35.04,1.71.04,1.17,0,2.79-.09,7.69-.41,7.02-.45,10.3-.63,24.03-1.12,3.73-.14,4.14-.18,4.95-.36l.41,8.14c-.63-.09-.81-.09-1.26-.09-3.15,0-7.2,1.21-10.3,3.15-4.5,2.75-7.15,6.57-7.15,10.26,0,2.57,1.21,4.32,3.78,5.54,1.84.9,5.67,1.62,8.59,1.62.45,0,.72,0,1.35-.09l-1.03,8.59c-.63-.13-.86-.13-1.67-.22-5.13-.5-8.5-1.21-11.38-2.52-5.31-2.48-8.05-6.62-8.05-12.33,0-3.73,1.26-7.11,3.83-10.17,1.17-1.44,2.25-2.34,4.41-3.83l-15.57,1.39c-1.75.18-2.21.23-3.87.58l-.45-8.19Z"/>
      <path class="cls-2" d="M281.3.77c-.27.81-.32.81-.86,3.6-.22,1.08-.31,1.48-.54,2.52,2.88-.31,4.82-.63,6.25-1.08l.13,7.29q-1.08.09-3.33.36c-1.22.13-3.69.36-4.82.45-1.62,5.31-2.79,8.42-4.9,13.05-.95,2.07-1.35,2.88-3.11,6.39q-.58,1.12-.85,1.75l-7.33-4c3.2-4.27,6.3-10.66,8.33-17.01h-2.52q-1.04,0-2.07-.04h-1.75v-7.2c1.71.32,3.78.45,6.57.45.5,0,.72,0,1.62-.04q.04-.36.4-1.89c.36-1.53.63-3.74.68-5.36l8.1.77ZM300.64,38.7c-1.67-1.93-3.38-3.37-5.8-4.9-.13,2.12-.67,3.42-1.89,4.68-1.75,1.75-4.91,2.79-8.5,2.79s-6.66-1.08-8.5-2.97c-1.48-1.53-2.25-3.46-2.25-5.58,0-5.22,4.36-8.86,10.62-8.86.95,0,1.67.04,3.15.27-.13-1.71-.18-2.56-.18-3.6,0-1.84.09-3.29.27-5.31l7.42.31c-.36,1.58-.49,2.92-.49,5.08,0,1.62.09,2.97.36,5.22,2.75,1.21,4.86,2.43,6.93,4,.13.09.86.67,2.21,1.75l-3.33,7.11ZM284.53,30.24c-2.11,0-3.46.9-3.46,2.29,0,1.3,1.26,2.16,3.2,2.16,2.25,0,3.42-.99,3.42-2.88,0-.31-.04-.94-.09-.99-1.21-.45-1.98-.58-3.06-.58ZM301.09,17.59c-4.23-2.66-8.64-4.68-13.99-6.48l3.73-6.21c5.67,2.02,9.36,3.64,13.54,6.07l-3.29,6.62Z"/>
      <path class="cls-2" d="M320.09,2.16c-1.75,5.13-3.1,13.54-3.42,21.73l3.46,1.17c-1.17,4.05-1.75,8.1-1.75,12.6,0,.85,0,1.26.13,2.2l-7.74.36c-.04-.85-.04-1.21-.23-2.38-.85-6.03-1.17-9.94-1.17-14.22,0-5.17.54-10.84,1.71-17.32.54-3.15.58-3.46.67-4.81l8.33.67ZM332.51,21.82c-2.07,2.66-3.01,4.59-3.01,6.21,0,2.07,2.03,3.19,5.85,3.19s7.79-.63,11.21-1.84l.45,7.96q-1.17.13-3.83.54c-2.43.36-5.22.58-7.78.58-4.19,0-6.98-.58-9.32-1.89-2.52-1.44-4.14-4.23-4.14-7.16,0-2.21.76-4.68,2.16-7.02.63-1.04.9-1.48,2.12-3.24l6.3,2.65ZM323.69,5.58c2.12.45,4.5.67,8.01.67,5.98,0,10.39-.36,13.41-1.12l.32,7.69c-.41,0-.86.05-3.33.32-3.1.32-6.39.5-9.49.5-2.75,0-5-.09-7.74-.36-.36-.04-.67-.04-1.3-.09l.13-7.6Z"/>
      <path class="cls-2" d="M362.57,27.94c.09-.72.09-.77.09-2.07,0-3.1.54-4.9,1.98-6.66,1.08-1.26,1.44-1.53,4.63-3.46,2.2-1.31,2.92-2.25,2.92-3.74,0-2.12-1.58-3.38-4.28-3.38-2.02,0-3.51.72-4.36,2.12-.45.72-.63,1.35-.81,2.75l-9.27-.86c.45-3.24,1.17-4.99,2.88-6.88,2.61-2.97,6.62-4.5,11.79-4.5,8.28,0,13.45,3.92,13.45,10.12,0,2.75-.9,4.86-2.79,6.61-1.08.99-1.53,1.31-5.44,3.74-1.89,1.21-2.57,2.38-2.57,4.46,0,.54.04,1.03.13,1.75h-8.37ZM371.3,31v8.5h-9.04v-8.5h9.04Z"/>
    </g>
  </g>
</svg>