<svg width="60" height="60" viewBox="0 0 60 60" fill="none" xmlns="http://www.w3.org/2000/svg">
<path d="M16.25 50C12.4583 50 9.21917 48.6875 6.5325 46.0625C3.84583 43.4375 2.50167 40.2292 2.5 36.4375C2.5 33.1875 3.47917 30.2917 5.4375 27.75C7.39583 25.2083 9.95833 23.5833 13.125 22.875C14.0833 19.5 15.865 16.6667 18.47 14.375C21.075 12.0833 24.085 10.6875 27.5 10.1875V30.375L23.5 26.5L20 30L30 40L40 30L36.5 26.5L32.5 30.375V10.1875C36.7917 10.7708 40.365 12.6983 43.22 15.97C46.075 19.2417 47.5017 23.085 47.5 27.5C50.375 27.8333 52.7608 29.0733 54.6575 31.22C56.5542 33.3667 57.5017 35.8767 57.5 38.75C57.5 41.875 56.4067 44.5317 54.22 46.72C52.0333 48.9083 49.3767 50.0017 46.25 50H16.25Z" fill="#150095"/>
</svg>
