<svg width="60" height="60" viewBox="0 0 60 60" fill="none" xmlns="http://www.w3.org/2000/svg">
<path fill-rule="evenodd" clip-rule="evenodd" d="M8.37868 13.3787C7.5 14.2574 7.5 15.6716 7.5 18.5V41.5C7.5 44.3284 7.5 45.7426 8.37868 46.6213C9.25736 47.5 10.6716 47.5 13.5 47.5H46.5C49.3284 47.5 50.7426 47.5 51.6213 46.6213C52.5 45.7426 52.5 44.3284 52.5 41.5V18.5C52.5 15.6716 52.5 14.2574 51.6213 13.3787C50.7426 12.5 49.3284 12.5 46.5 12.5H13.5C10.6716 12.5 9.25736 12.5 8.37868 13.3787ZM15.5547 21.6679C15.0952 21.3616 14.4743 21.4858 14.1679 21.9453C13.8616 22.4048 13.9858 23.0257 14.4453 23.3321L28.8906 32.9622C29.5624 33.4101 30.4376 33.4101 31.1094 32.9622L45.5547 23.3321C46.0142 23.0257 46.1384 22.4048 45.8321 21.9453C45.5257 21.4858 44.9048 21.3616 44.4453 21.6679L30 31.2981L15.5547 21.6679Z" fill="white"/>
</svg>
