<svg width="56" height="40" viewBox="0 0 56 40" fill="none" xmlns="http://www.w3.org/2000/svg">
<path d="M14.25 40C10.4583 40 7.21917 38.6875 4.5325 36.0625C1.84583 33.4375 0.501667 30.2292 0.5 26.4375C0.5 23.1875 1.47917 20.2917 3.4375 17.75C5.39583 15.2083 7.95833 13.5833 11.125 12.875C12.0833 9.5 13.865 6.66667 16.47 4.375C19.075 2.08333 22.085 0.6875 25.5 0.1875V20.375L21.5 16.5L18 20L28 30L38 20L34.5 16.5L30.5 20.375V0.1875C34.7917 0.770833 38.365 2.69833 41.22 5.97C44.075 9.24167 45.5017 13.085 45.5 17.5C48.375 17.8333 50.7608 19.0733 52.6575 21.22C54.5542 23.3667 55.5017 25.8767 55.5 28.75C55.5 31.875 54.4067 34.5317 52.22 36.72C50.0333 38.9083 47.3767 40.0017 44.25 40H14.25Z" fill="#150095"/>
</svg>
