<?xml version="1.0" encoding="UTF-8"?>
<svg id="_レイヤー_2" data-name="レイヤー 2" xmlns="http://www.w3.org/2000/svg" viewBox="0 0 551.3 44.61">
  <defs>
    <style>
      .cls-1 {
        fill: none;
        stroke: #fff;
        stroke-linecap: round;
        stroke-linejoin: round;
        stroke-width: 2px;
      }

      .cls-2 {
        fill: #fff;
        stroke-width: 0px;
      }
    </style>
  </defs>
  <g id="_レイヤー_1-2" data-name="レイヤー 1">
    <g>
      <path class="cls-2" d="M12.15,24.53c-2.66,2.03-4.05,3.92-4.05,5.54,0,2.34,2.92,3.38,9.76,3.38,5.31,0,11.74-.9,14.71-2.07l.54,8.64q-1.21.04-4.46.45c-3.78.5-7.51.72-11.2.72-5.08,0-8.68-.5-11.43-1.62-4-1.62-6.03-4.36-6.03-8.14,0-4,1.98-7.29,6.43-10.84l5.71,3.96ZM2.97,4.11c2.92.76,8.41,1.21,14.89,1.21,5.85,0,10.17-.27,12.51-.81l.18,6.88c-2.79,1.35-8.46,4.95-12.51,7.96l-5.54-3.83c1.31-.9,1.4-.94,3.55-2.25.58-.36.63-.41,1.08-.63.32-.18.36-.18.72-.4-1.49.13-2.16.18-3.69.18-3.42,0-5.67-.13-10.12-.54-.81-.09-.95-.09-1.58-.13l.5-7.65Z"/>
      <path class="cls-2" d="M59.08,3.7c-.94,1.75-1.62,3.33-6.84,16.78,1.8-1.3,3.6-1.98,5.58-1.98,2.97,0,5.26,1.66,5.98,4.32.45,1.62.45,1.98.54,7.56,0,3.15.54,4.14,2.16,4.14,1.8,0,3.11-1.17,4.18-3.64,1.04-2.43,1.67-5.22,1.85-8.32,2.61,2.25,3.91,3.06,7.15,4.5-.85,4.68-2.07,7.74-4.05,10.39-2.34,3.11-5.89,4.82-10.03,4.82-2.88,0-5.08-.76-6.57-2.34-1.53-1.58-2.16-3.51-2.16-6.71,0-.41,0-1.26.04-3.19v-.77c0-2.21-.49-2.92-1.89-2.92-2.07,0-4.23,2.07-5.98,5.85-1.35,2.83-2.88,7.38-3.51,10.35l-8.33-2.47c.81-1.58.9-1.8,3.6-9.63.36-1.12,1.93-5.62,4.68-13.54,3.64-10.48,4.5-13.23,4.81-15.03l8.77,1.84Z"/>
      <path class="cls-2" d="M100.89,2.35c-.27.81-.32.81-.86,3.6-.22,1.08-.31,1.48-.54,2.52,2.88-.31,4.82-.63,6.25-1.08l.13,7.29q-1.08.09-3.33.36c-1.22.13-3.69.36-4.82.45-1.62,5.31-2.79,8.42-4.9,13.05-.95,2.07-1.35,2.88-3.11,6.39q-.58,1.12-.85,1.75l-7.33-4c3.2-4.27,6.3-10.66,8.33-17.01h-2.52q-1.04,0-2.07-.04h-1.75v-7.2c1.71.32,3.78.45,6.57.45.5,0,.72,0,1.62-.04q.04-.36.4-1.89c.36-1.53.63-3.74.68-5.36l8.1.77ZM120.24,40.28c-1.67-1.93-3.38-3.37-5.8-4.9-.13,2.12-.67,3.42-1.89,4.68-1.75,1.75-4.91,2.79-8.5,2.79s-6.66-1.08-8.5-2.97c-1.48-1.53-2.25-3.46-2.25-5.58,0-5.22,4.37-8.86,10.62-8.86.95,0,1.67.04,3.15.27-.13-1.71-.18-2.56-.18-3.6,0-1.84.09-3.29.27-5.31l7.42.31c-.36,1.58-.49,2.92-.49,5.08,0,1.62.09,2.97.36,5.22,2.75,1.21,4.86,2.43,6.93,4,.13.09.86.67,2.21,1.75l-3.33,7.11ZM104.13,31.82c-2.11,0-3.46.9-3.46,2.29,0,1.3,1.26,2.16,3.2,2.16,2.25,0,3.42-.99,3.42-2.88,0-.31-.04-.94-.09-.99-1.21-.45-1.98-.58-3.06-.58ZM120.69,19.18c-4.23-2.66-8.64-4.68-13.99-6.48l3.73-6.21c5.67,2.02,9.36,3.64,13.54,6.07l-3.29,6.62Z"/>
      <path class="cls-2" d="M153.27,14.63c-.67.09-.81.09-1.71.27-1.75.32-4.59.68-6.79.9v3.96c2.61-.58,4.18-.77,6.57-.77,5.54,0,9.67,1.4,12.28,4.1,1.98,2.02,3.06,4.86,3.06,7.96,0,6.34-4.82,11.12-11.21,11.12-5.58,0-8.82-3.74-8.82-10.21v-1.12c3.29-.95,4.36-1.39,6.84-2.75-.04.95-.09,1.44-.09,2.38,0,1.4.09,2.16.36,2.83.32.81,1.08,1.35,1.98,1.35,1.93,0,3.24-1.58,3.24-3.87,0-1.53-.81-3.01-2.21-3.96-1.21-.76-2.97-1.17-5.35-1.17-2.21,0-4.05.22-6.61.9l.04,7.96v1.17c0,2.75-.18,3.74-.86,4.68-.85,1.26-2.56,1.98-4.59,1.98-3.33,0-7.15-1.39-9.72-3.55-1.84-1.58-2.92-3.69-2.92-5.85,0-2.43,1.49-5.08,4.19-7.47,1.8-1.58,3.69-2.7,6.7-4v-5.31l-3.42.09-4.36-.09c-.14,0-.54,0-.95.04l-.09-7.07c1.44.27,3.29.41,6.17.41h1.71q.63-.04.9-.04v-1.44c0-3.37-.04-4.41-.31-6.07h7.78c-.22,1.62-.27,2.66-.27,5.62v1.44c3.06-.31,5.85-.85,8.23-1.53l.22,7.11ZM137.66,28.9c-2.11.99-3.73,2.74-3.73,4,0,.54.31.99.99,1.44.63.41,1.49.72,2.03.72.58,0,.72-.31.72-1.8v-4.36ZM162.81,19c-2.29-4-4.86-7.06-8.87-10.57l5.94-4c3.82,3.11,6.61,6.25,8.86,9.94l-5.94,4.63Z"/>
      <path class="cls-1" d="M170.37,21.92c.81-3.56,1.12-6.17,1.12-9.76,0-.45,0-1.12-.04-2.03l3.83.72v1.67c0,4.28-.32,7.7-1.04,11.02l-3.87-1.62ZM182.57,37.76c0,2.7.04,4.32.18,5.85h-7.02c.18-1.58.27-3.78.27-6.21V6.22c0-2.29-.09-3.42-.27-4.99h7.07c-.18,1.48-.23,2.56-.23,4.99v4.19l2.48-1.04c1.12,2.38,1.75,4,2.7,6.79l-3.33,1.53c-.72-2.83-1.08-4-1.85-6.07v26.14ZM205.16,17.65c-.27.63-.36.81-.77,2.16-.63,1.93-1.48,4.05-2.34,5.85,1.4,1.44,1.53,1.62,3.42,3.83v-7.61c0-1.8-.04-3.1-.13-3.91h6.97c-.13,1.21-.18,2.2-.18,4.09v16.24c0,2.47.04,4,.22,5.26h-6.88v-1.62h-14.4v1.62h-6.75c.14-1.39.23-3.1.23-5.53v-15.97c0-2.29-.04-2.88-.18-4.05h6.84c-.13.85-.13,1.39-.13,2.88l2.92-2.88c1.84,1.62,2.52,2.16,3.74,3.33.85-2.25,1.48-4.32,1.71-5.71l5.71,2.02ZM189.27,16.25c-1.17-3.87-2.61-7.51-4.63-11.7l5.94-2.11c2.38,5.31,3.24,7.47,4.5,11.29l-5.8,2.52ZM191.07,31.01c1.4-1.17,2.47-2.43,3.92-4.5-1.71-1.76-2.34-2.34-3.92-3.69v8.19ZM191.07,35.87h3.64c-1.08-1.21-2.2-2.29-3.64-3.42v3.42ZM199.84,1c1.35,3.24,2.29,5.99,3.65,10.84,1.26-2.7,2.34-5.76,3.55-10.03l6.66,2.11c-2.52,6.93-3.24,8.78-5.62,13.5l-6.12-2.66c.58-1.08.9-1.67,1.21-2.29l-5.71,1.84c-1.12-4.63-2.16-7.87-3.69-11.52l6.07-1.8ZM202.23,35.42c-1.48-2.25-2.11-3.1-3.19-4.41-1.3,1.85-2.16,2.92-3.96,4.86h10.39v-4.19l-3.24,3.74Z"/>
      <path class="cls-2" d="M221.4,3.43c.95.18,2.07.23,4.63.23,3.11,0,7.2-.18,9.31-.45.9-.09,1.26-.22,1.85-.54l4.86,4.14c-.45.63-.58.9-1.08,2.16-.4.99-2.25,6.71-2.97,9.13,3.33.67,5.17,1.17,7.69,2.21.32-2.21.36-3.38.36-7.38,0-1.04-.04-1.62-.18-2.57l7.83.27c-.22,1.08-.27,1.53-.31,3.29-.18,4.23-.36,6.25-.81,9.31q3.11,1.58,4.68,2.43c.81.45.99.54,1.53.72l-2.61,8.42c-1.26-1.12-3.02-2.34-5.58-3.78-2.25,5.36-5.98,9.27-11.65,12.38-1.89-2.52-3.33-4.05-5.62-5.85,3.33-1.58,4.86-2.57,6.61-4.23,1.71-1.67,2.83-3.28,3.92-5.71-2.88-1.3-4.72-1.89-7.92-2.56-1.84,5.49-3.33,9-4.63,11.11-1.75,2.83-4.14,4.32-6.88,4.32-2.11,0-4.27-.95-5.85-2.57-1.8-1.84-2.74-4.41-2.74-7.38,0-4.41,2.11-8.23,5.8-10.62,2.38-1.53,4.9-2.21,8.91-2.43.81-2.66,1.49-4.95,2.12-7.51-1.98.18-4.46.31-7.47.45-1.62.04-2.16.09-3.46.27l-.32-7.25ZM224.06,26.83c-.86.99-1.26,2.16-1.26,3.42,0,1.39.67,2.43,1.53,2.43,1.04,0,2.21-2.34,4.23-8.32-2.12.36-3.38,1.04-4.5,2.47Z"/>
      <path class="cls-2" d="M293.49,15.17c-.32.63-.63,1.39-.95,2.25,1.93.63,3.19,1.3,4.54,2.52,2.47,2.21,3.69,5.04,3.69,8.46,0,5.44-3.01,9.81-8.46,12.24-2.43,1.08-4.91,1.67-9.09,2.07-.72-2.43-1.49-4.23-2.52-5.94-3.1,2.92-7.02,4.68-10.44,4.68-5.31,0-8.68-3.55-8.68-9.18,0-3.83,1.58-7.52,4.5-10.44,1.8-1.8,3.46-2.92,6.25-4.09,0-1.53,0-1.98.04-3.92q-1.93-.04-5.26-.09c-.67-.04-1.4-.04-2.21-.04-.63,0-.81,0-1.44.04l-.09-7.11c2.61.5,4.91.67,8.37.67h.27l.63-.04q.04-.58.14-1.93c.04-.45.04-.95.04-1.44,0-.9,0-1.26-.09-1.89l7.74.31c-.36,1.35-.45,2.07-.72,4.73,7.29-.41,13.23-1.21,16.87-2.25l.32,7.29c-.72.04-.9.04-1.94.18-4.32.63-11.16,1.17-15.66,1.35q-.04.45-.09,1.21c0,.27,0,.41-.04,1.35,2.02-.32,2.83-.41,4.36-.41.86,0,1.21,0,2.12.09.36-1.04.5-1.67.58-2.56l7.2,1.89ZM268.7,31.64c0,1.67.67,2.61,1.93,2.61.85,0,1.62-.27,2.47-.86-.41-2.29-.63-4.95-.67-8.14-2.43,1.71-3.73,3.92-3.73,6.39ZM279.45,28.63c1.71-2.07,3.38-4.81,4.23-6.93-.41-.04-.54-.04-.95-.04-1.3,0-2.34.13-3.55.5,0,2.92.04,4.23.27,6.48ZM288.86,33.89c2.61-1.21,4.28-3.55,4.28-6.03,0-2.03-.86-3.29-2.88-4.32-2.07,4.82-4.54,8.46-7.88,11.75,2.97-.23,4.77-.58,6.48-1.4Z"/>
      <path class="cls-2" d="M317.39,2.58c-.63,1.89-1.17,4.81-1.84,9.63,2.92-5.26,6.57-7.79,11.38-7.79,3.06,0,6.07,1.53,8.14,4.09,2.52,3.15,3.73,7.25,3.73,12.51,0,7.38-2.29,12.87-6.88,16.47-2.56,2.02-6.16,3.69-10.26,4.68-1.53.4-2.7.63-5.31,1.03-1.08-3.37-1.66-4.63-3.6-7.69,12.92-.76,18.13-5,18.13-14.71,0-5.62-1.8-8.73-5-8.73-1.67,0-3.2.81-4.86,2.61-2.7,2.83-4.46,6.57-5,10.44-.13,1.04-.18,1.58-.18,3.69l-7.56.09c.05-.32.05-.58.05-.77v-.9c-.09-1.75-.14-4.46-.14-5.71,0-5.45.32-10.62,1.04-16.42.13-1.3.18-1.8.18-2.47v-.36l7.96.32Z"/>
      <path class="cls-2" d="M346.59,6.26c2.66.63,7.29.95,12.96.95.54,0,1.12,0,2.47-.04-.04-2.97-.09-3.78-.27-4.91h7.92c-.22,1.22-.22,1.53-.36,4.68,5.99-.36,10.17-.86,12.78-1.58l.22,6.88c-1.3.09-1.58.09-3.96.4-3.01.41-5.53.63-9.04.77v2.83c5.08-.27,8.5-.67,11.61-1.35l.18,6.88q-.95.04-2.88.23c-2.03.22-6.34.54-8.82.63q.04,2.07.13,3.96c2.34.63,3.78,1.17,6.17,2.43,2.29,1.21,2.83,1.53,6.03,3.73.67.45.99.63,1.71,1.08l-4.27,7.25q-1.35-1.44-3.06-2.88c-2.11-1.8-4.32-3.2-6.39-4,0,2.02-.31,3.38-1.08,4.54-1.48,2.29-4.9,3.55-9.81,3.55-7.38,0-11.56-3.01-11.56-8.23,0-3.29,2.07-5.99,5.67-7.33,2.12-.81,4.81-1.21,8.01-1.21h1.39c-.04-1.53-.09-2.43-.09-2.66-.94,0-2.79.04-3.46.04-2.61,0-4.68-.04-7.24-.18-1.98-.09-2.21-.13-3.56-.13l.09-6.71c1.98.41,6.48.72,11.07.72.94,0,1.62,0,3.01-.04v-.67q0-.09-.04-1.17v-1.08c-1.04.04-1.49.04-1.89.04-2.43,0-3.2-.04-8.37-.27q-1.71-.04-3.38-.13c-.63-.05-1.08-.05-1.21-.05h-.76l.09-6.97ZM359.6,31.91c-2.75,0-4.32.76-4.32,2.16,0,1.12,1.26,1.8,3.51,1.8,2.52,0,3.6-.86,3.6-2.88,0-.27-.04-.77-.04-.77-1.08-.27-1.71-.31-2.74-.31Z"/>
      <path class="cls-2" d="M402.75,3.07c-.32,1.89-.41,3.87-.45,8.14,4.63-.18,6.43-.27,11.43-.5v-.5c0-2.75-.18-6.16-.36-7.69h7.74c-.13.99-.23,2.34-.23,4.23v3.69q6.66-.27,8.15-.45l.04,7.65c-1.53-.09-2.34-.13-3.78-.13-.58,0-.72,0-4.41.04,0,6.71-.49,9.27-2.2,11.2-1.12,1.22-2.92,1.85-5.45,1.85-1.93,0-4.32-.5-6.84-1.4v-1.12c0-2.25-.13-3.92-.54-6.21,2.25,1.08,4.54,1.75,6.08,1.75,1.44,0,1.71-.85,1.8-5.94-4.14.13-7.96.32-11.52.5,0,9.76.04,11.92.36,13.23.58,2.34,2.29,2.97,8.1,2.97,5.49,0,10.84-.76,14.08-2.02l.5,8.28q-1.89.13-4.46.45c-4.18.45-7.11.63-10.48.63-4.32,0-7.56-.41-9.49-1.12-3.38-1.3-4.95-3.42-5.62-7.47-.27-1.75-.41-5.44-.41-11.83v-2.74c-4,.22-5.35.31-7.65.67l-.45-7.51c.76.09.99.09,1.53.09.67,0,2.83-.09,6.57-.27v-1.35c0-3.92-.04-5.17-.36-7.11h8.33Z"/>
      <path class="cls-2" d="M452.88,3.7c-.94,1.75-1.62,3.33-6.84,16.78,1.8-1.3,3.6-1.98,5.58-1.98,2.97,0,5.26,1.66,5.98,4.32.45,1.62.45,1.98.54,7.56,0,3.15.54,4.14,2.16,4.14,1.8,0,3.11-1.17,4.18-3.64,1.04-2.43,1.67-5.22,1.85-8.32,2.61,2.25,3.91,3.06,7.15,4.5-.85,4.68-2.07,7.74-4.05,10.39-2.34,3.11-5.89,4.82-10.03,4.82-2.88,0-5.08-.76-6.57-2.34-1.53-1.58-2.16-3.51-2.16-6.71,0-.41,0-1.26.04-3.19v-.77c0-2.21-.49-2.92-1.89-2.92-2.07,0-4.23,2.07-5.98,5.85-1.35,2.83-2.88,7.38-3.51,10.35l-8.33-2.47c.81-1.58.9-1.8,3.6-9.63.36-1.12,1.93-5.62,4.68-13.54,3.64-10.48,4.5-13.23,4.81-15.03l8.77,1.84Z"/>
      <path class="cls-2" d="M476.01,12.29h.41c1.44,0,5.76-.36,8.68-.72.72-4.73,1.04-7.38,1.04-8.91v-.76l8.14.76q-.27.9-.72,3.55c-.36,2.07-.67,3.78-.86,4.82.77-.04,1.3-.09,1.94-.09,2.79,0,4.86.58,6.39,1.8,2.29,1.84,3.19,4.59,3.19,9.67,0,7.02-1.04,12.87-2.83,15.97-.63,1.12-1.75,2.12-2.88,2.7-.9.41-2.07.63-3.51.63-2.07,0-4.09-.36-7.15-1.21.13-1.26.13-1.8.13-2.61,0-1.98-.18-3.19-.67-5.35,2.56.99,4.86,1.62,6.17,1.62.94,0,1.53-.58,2.02-2.03.67-1.98,1.21-6.57,1.21-9.99,0-1.93-.27-3.01-.85-3.64-.5-.58-1.12-.77-2.7-.77-.41,0-.86,0-1.8.09-.81,3.78-1.75,7.07-3.2,11.21-1.44,4.18-2.16,5.98-4.77,11.61-.36.76-.45.99-.72,1.62l-7.42-3.92c2.88-3.83,6.66-12.78,8.46-19.89-3.2.4-5.49.85-7.02,1.26l-.67-7.42ZM509.4,7.48c4.5,5.62,7.38,11.66,9.18,19.21l-7.38,3.51c-1.48-8.23-4.27-14.76-8.41-19.66l6.61-3.06Z"/>
      <path class="cls-2" d="M532.26,29.53c.09-.72.09-.77.09-2.07,0-3.1.54-4.9,1.98-6.66,1.08-1.26,1.44-1.53,4.63-3.46,2.2-1.31,2.92-2.25,2.92-3.74,0-2.12-1.58-3.38-4.28-3.38-2.02,0-3.51.72-4.36,2.12-.45.72-.63,1.35-.81,2.75l-9.27-.86c.45-3.24,1.17-4.99,2.88-6.88,2.61-2.97,6.62-4.5,11.79-4.5,8.28,0,13.45,3.92,13.45,10.12,0,2.75-.9,4.86-2.79,6.61-1.08.99-1.53,1.31-5.44,3.74-1.89,1.21-2.57,2.38-2.57,4.46,0,.54.04,1.03.13,1.75h-8.37ZM540.99,32.59v8.5h-9.04v-8.5h9.04Z"/>
    </g>
  </g>
</svg>