<svg width="85" height="85" viewBox="0 0 85 85" fill="none" xmlns="http://www.w3.org/2000/svg">
<path fill-rule="evenodd" clip-rule="evenodd" d="M75.8855 83.2461C77.8382 85.1988 81.004 85.1988 82.9566 83.2461C84.9092 81.2935 84.9092 78.1277 82.9566 76.1751L49.3899 42.6083L83.1731 8.82509C85.1257 6.87246 85.1257 3.70664 83.1731 1.75402C81.2205 -0.198603 78.0547 -0.198607 76.102 1.75402L42.3188 35.5373L8.53554 1.75402C6.58291 -0.198607 3.41709 -0.198603 1.46447 1.75402C-0.488154 3.70664 -0.488158 6.87246 1.46447 8.82509L35.2477 42.6083L1.68098 76.1751C-0.271644 78.1277 -0.271644 81.2935 1.68098 83.2461C3.6336 85.1988 6.79942 85.1988 8.75204 83.2461L42.3188 49.6794L75.8855 83.2461Z" fill="url(#paint0_linear_60_1609)"/>
<defs>
<linearGradient id="paint0_linear_60_1609" x1="0" y1="42.5001" x2="84.6376" y2="42.5001" gradientUnits="userSpaceOnUse">
<stop stop-color="#0052D4"/>
<stop offset="0.5" stop-color="#4364F7"/>
<stop offset="1" stop-color="#4795EE"/>
</linearGradient>
</defs>
</svg>
