<?xml version="1.0" encoding="UTF-8"?>
<svg id="_レイヤー_2" data-name="レイヤー 2" xmlns="http://www.w3.org/2000/svg" viewBox="0 0 310.5 48.64">
  <defs>
    <style>
      .cls-1 {
        fill: #000;
      }

      .cls-1, .cls-2 {
        stroke-width: 0px;
      }

      .cls-2 {
        fill: #0f9cbf;
      }
    </style>
  </defs>
  <g id="_レイヤー_1-2" data-name="レイヤー 1">
    <g>
      <path class="cls-2" d="M9.31,32.26c0,4.23.04,5.85.36,7.83H0c.31-1.98.41-3.78.41-7.69V9.09C.41,6.12.31,4.63.04,2.52c1.84.09,3.1.13,6.57.13h13c3.96,0,5.44-.04,7.56-.31v8.55c-1.98-.23-3.73-.32-7.51-.32h-10.35v7.38h8.46c3.51,0,5.22-.09,7.2-.32v8.33c-1.98-.22-3.78-.32-7.2-.32h-8.46v6.62Z"/>
      <path class="cls-1" d="M50.8,20.74c-2.07-.63-3.19-.86-4.59-.86-2.29,0-4.05.81-5.35,2.43-.85,1.08-1.17,2.02-1.35,4v7.02c0,2.88.09,4.59.36,6.75h-9.31c.27-2.25.36-3.87.36-6.79v-13.86c0-3.29-.09-4.86-.36-6.79h8.96v3.55c2.21-2.88,4.9-4.09,9-4.09,1.44,0,2.34.09,4.46.54l-2.16,8.1Z"/>
      <path class="cls-1" d="M62.77,28.89c.45,3.64,2.57,5.58,6.12,5.58,1.8,0,3.38-.58,4.54-1.67.67-.63.99-1.12,1.35-2.29l7.83,2.21c-1.04,2.34-1.71,3.37-2.97,4.63-2.57,2.52-6.17,3.82-10.62,3.82s-7.87-1.26-10.44-3.82c-2.65-2.7-4.09-6.53-4.09-10.98,0-8.91,5.71-14.8,14.31-14.8,7.02,0,11.92,3.83,13.5,10.53.36,1.44.54,3.33.68,5.89,0,.18,0,.45.04.9h-20.25ZM74.47,22.68c-.63-2.88-2.57-4.41-5.67-4.41s-5.13,1.44-5.89,4.41h11.56Z"/>
      <path class="cls-1" d="M93.73,28.89c.45,3.64,2.57,5.58,6.12,5.58,1.8,0,3.38-.58,4.54-1.67.67-.63.99-1.12,1.35-2.29l7.83,2.21c-1.04,2.34-1.71,3.37-2.97,4.63-2.57,2.52-6.17,3.82-10.62,3.82s-7.87-1.26-10.44-3.82c-2.65-2.7-4.09-6.53-4.09-10.98,0-8.91,5.71-14.8,14.31-14.8,7.02,0,11.92,3.83,13.5,10.53.36,1.44.54,3.33.68,5.89,0,.18,0,.45.04.9h-20.25ZM105.43,22.68c-.63-2.88-2.57-4.41-5.67-4.41s-5.13,1.44-5.89,4.41h11.56Z"/>
      <path class="cls-1" d="M125.46,30.91c.45,2.34,1.98,3.38,4.99,3.38,2.7,0,4.23-.76,4.23-2.16,0-.68-.36-1.26-.99-1.62-.63-.36-1.21-.54-3.69-1.04-3.42-.67-5.17-1.12-6.66-1.62-2.16-.81-3.64-1.84-4.5-3.19-.72-1.21-1.12-2.75-1.12-4.28,0-5.4,4.54-8.68,12.06-8.68,4.28,0,7.47.95,9.58,2.88,1.49,1.3,2.21,2.61,2.92,5.13l-8.68.95c-.22-1.85-1.35-2.66-3.78-2.66s-3.78.76-3.78,1.93.94,1.67,5.4,2.66c4.41.95,5.8,1.35,7.38,2.16,2.92,1.44,4.32,3.64,4.32,6.88,0,2.38-.81,4.54-2.29,5.98-2.16,2.16-5.85,3.29-10.67,3.29-5.67,0-9.67-1.53-11.83-4.5-.9-1.26-1.35-2.34-1.8-4.5l8.91-.99Z"/>
      <path class="cls-1" d="M147.64,18.67c-1.93-4.5-2.11-4.9-2.7-6.03h9.76c.22,1.44.81,3.38,1.75,5.8l4.14,10.39,4-10.21c1.26-3.1,1.67-4.41,1.93-5.98h9.76q-1.12,2.34-2.7,6.03l-10.3,23.8c-1.8,4.23-5.04,6.16-10.17,6.16-1.98,0-3.69-.22-6.17-.76l.99-7.15c1.48.76,2.34.99,3.51.99,1.71,0,2.97-.76,3.64-2.11l.95-1.94-8.42-18.99Z"/>
      <path class="cls-1" d="M198.49,29.7c-2.61,5.76-5.62,8.28-9.72,8.28-6.03,0-10.26-5.76-10.26-14,0-5.26,1.8-10.03,5.17-13.72,3.96-4.32,9.67-6.62,16.29-6.62,6.03,0,11.34,2.03,14.67,5.54,2.88,3.06,4.41,7.42,4.41,12.51,0,5.85-2.21,11.16-5.98,14.54-3.06,2.74-6.62,4.18-12.92,5.17-1.08-3.24-1.93-4.86-3.82-7.38,4.23-.32,7.02-1.04,9.45-2.29,3.46-1.84,5.4-5.62,5.4-10.44,0-3.83-1.35-6.88-3.96-8.87-1.17-.9-2.16-1.3-3.78-1.57-.99,7.74-2.52,13.54-4.95,18.85ZM190.75,13.23c-2.97,2.52-4.9,6.7-4.9,10.71,0,3.2,1.21,5.71,2.79,5.71,1.12,0,2.29-1.57,3.65-4.99,1.58-4.05,2.88-9.27,3.38-13.72-1.89.27-3.33.94-4.91,2.29Z"/>
      <path class="cls-1" d="M243.45,28.17c-1.89,0-2.83.04-4.41.27v-1.48c-1.48.63-1.62.67-2.75,1.08v9.18c0,2.21.09,3.92.27,5.67h-7.11c.18-1.39.27-3.55.27-5.67v-6.88c-1.21.41-1.71.54-2.52.81q-2.43.67-3.65,1.17l-1.21-7.06c1.98-.23,3.38-.5,7.38-1.53v-8.5h-1.75c-.32,2.66-.54,3.78-1.3,6.48-2.12-1.35-3.01-1.84-4.91-2.56,1.12-3.64,1.75-8.14,1.75-12.78,0-.86-.04-1.3-.13-2.07l5.26.58c-.09.63-.09.9-.13,3.01v1.04h1.21v-4.77c0-1.35-.09-2.47-.27-3.69h7.11c-.18,1.17-.27,2.25-.27,3.69v4.77c1.53,0,2.29-.04,3.2-.22v4.68c1.58.09,3.01.13,4.86.13h3.51v-2.7h-2.61c-2.02,0-3.69.09-5,.22v-6.71c1.49.18,2.88.27,5,.27h2.61v-.95c0-1.26-.09-2.25-.23-3.15h7.11c-.18.94-.23,1.8-.23,3.1v.99h3.6c2.16,0,3.65-.09,5.13-.27v6.71c-1.3-.13-3.01-.22-5.13-.22h-3.6v2.7h4.46c2.38,0,4.46-.09,5.53-.22v6.52c-1.26-.13-2.97-.22-4.41-.22v2.38c2.34,0,3.19-.04,4.14-.18v6.66c-1.44-.18-2.34-.27-4.14-.27v9.13c0,3.91-2.03,5.22-7.96,5.22-.95,0-2.29-.04-3.74-.14-.27-2.65-.63-4.14-1.3-5.85l-1.98,1.53c-1.67-3.06-2.97-4.86-5.35-7.38l4.27-2.52h-.58ZM236.29,21.73q1.08-.41,3.2-1.17v1.21c1.21.13,2.56.18,4.95.18h9.04v-2.38h-9.13c-2.79,0-4.23.04-5.58.22v-4.5q-1.44-.09-2.48-.09v6.53ZM246.06,28.17c1.85,1.75,3.2,3.42,4.59,5.67l-2.83,2.16c1.94.23,3.2.32,3.92.32,1.44,0,1.75-.23,1.75-1.21v-6.93h-7.42Z"/>
      <path class="cls-1" d="M310.05,13.45c-.72-.04-1.08-.09-1.8-.09-.18,6.52-1.26,11.47-3.55,16.42,1.8,2.47,3.33,4,5.8,5.85-1.53,2.74-2.07,3.91-3.33,7.33-2.7-2.47-4.36-4.36-6.16-7.06-2.25,2.88-3.96,4.5-7.38,7.06-.95-1.8-1.75-3.15-2.79-4.45-2.92.63-5.4,1.03-9.99,1.71-.99.18-1.8.31-2.66.54l-.5-6.79h1.04c1.04,0,2.88-.09,4.91-.27v-2.97h-1.89c-1.39,0-2.11.04-3.06.13v-6.03c.81.09,1.67.13,3.06.13h1.89v-2.21h-2.25c-1.44,0-2.21.04-3.24.14v-4.63c-.54.76-.72.99-1.35,1.84v17.77c0,2.47.04,3.73.18,4.99h-6.93c.18-1.44.27-2.92.27-5.26v-8.05c0-1.35,0-2.25.04-2.65-.58.67-1.12,1.12-1.89,1.71-.5-3.01-.99-4.72-2.07-7.33,3.91-2.88,6.88-6.39,8.77-10.44l3.06,1.67v-6.03c-2.43,2.97-5.44,5.76-8.77,8.19-.95-2.83-1.62-4.27-3.01-6.48,3.87-2.38,6.79-5.35,8.14-8.19l3.64,2.75h4.63c-.09.85-.09,1.71-.09,2.83v3.65h1.35V3.92c0-1.31-.04-2.25-.13-3.24h5.67c-.09,1.08-.13,1.89-.13,3.29v5.26h1.44v-3.65c0-1.08,0-1.26-.09-2.83h4.72c-.09.85-.13,1.53-.13,2.92v4.99c1.44-3.19,2.52-7.38,2.66-10.3l6.61,1.44c-.22.72-.27.85-.58,2.29-.22.95-.45,1.67-.85,2.97h3.24c1.62,0,2.52-.04,3.51-.22v6.61ZM280.26,15.21h-.14c-.09.18-.45.72-.99,1.58.72.04,1.04.04,1.67.04h10.71c.58-.63.72-.85,1.35-1.62h-12.6ZM294.25,33.93c1.39-1.31,2.43-2.48,3.51-4-1.21-2.88-2.02-5.45-2.66-8.46-.22-.31-.27-.41-.49-.63v2.07c-.86-.09-1.31-.14-2.29-.14h-2.39v2.21h.86c1.62,0,2.52-.04,3.64-.13v6.03c-1.08-.09-2.11-.13-3.64-.13h-.86v2.25c1.53-.22,2.16-.36,4.32-.72v1.67ZM300.96,13.32c-.5,1.12-.72,1.58-1.4,2.88.41,2.52.67,3.73,1.49,6.17.72-2.88.94-4.86,1.17-9.04h-1.26Z"/>
    </g>
  </g>
</svg>