<?xml version="1.0" encoding="UTF-8"?>
<svg id="_レイヤー_2" data-name="レイヤー_2" xmlns="http://www.w3.org/2000/svg" viewBox="0 0 289.41 85.02">
  <defs>
    <style>
      .cls-1 {
        fill: #fff;
      }

      .cls-2 {
        fill: none;
        stroke: #fff;
        stroke-width: 2px;
      }
    </style>
  </defs>
  <g id="_レイヤー_1-2" data-name="レイヤー_1">
    <g>
      <path class="cls-1" d="M33.85,7.07c-.57.61-.68.8-1.18,1.98-2.43,5.7-5.7,9.54-10.6,12.58-1.33-1.71-2.58-2.93-4.25-4.14-.23,3.95-.87,6.73-2.2,9.23-1.33,2.43-3.31,4.6-5.93,6.42-1.56,1.06-2.85,1.75-5.36,2.92-1.52-3-2.13-3.91-4.33-6.15,4.18-1.33,6.92-3,8.7-5.28,1.82-2.36,2.47-5.05,2.47-10.11,0-1.22-.04-1.79-.23-2.62h7.14c-.11.76-.15,1.1-.19,3.27,0,.04-.04.95-.04,1.33q.23-.15.87-.46c2.77-1.41,5.01-3.69,6.38-6.46H6.99c-2.89,0-4.22.08-6.04.27V3.19c1.75.27,3.04.34,6.16.34h19.91c2.13,0,2.39-.04,3.27-.42l3.57,3.95Z"/>
      <path class="cls-1" d="M41.23,3.57c4.79,2.81,7.26,4.56,10.45,7.45l-4.48,5.93c-3.31-3.46-6.54-5.97-10.33-8.02l4.37-5.36ZM37.24,27.17c3.88-.3,7.86-1.25,11.44-2.74,4.79-1.98,8.21-4.83,11.13-9.38,1.6-2.43,2.62-4.52,3.72-7.45,1.86,2.24,2.74,3,5.58,5.09-3.46,7.49-7.07,11.97-12.39,15.39-4.1,2.66-7.71,4.07-14.78,5.7-1.48.34-1.71.38-2.74.68l-1.98-7.29Z"/>
      <path class="cls-1" d="M96.97,14.1c-.46,5.17-1.03,7.71-2.32,10.56-1.48,3.15-3.72,5.77-6.8,8.02-1.86,1.33-3.34,2.13-6.27,3.38-1.37-2.81-2.2-3.91-4.45-6,5.78-1.98,9.16-4.45,11.06-8.05,1.1-2.09,1.63-4.33,1.9-7.9h-7.75c-2.24,3.53-3.38,4.94-6.04,7.41-1.63-1.82-2.89-2.81-5.55-4.25,3.69-3.12,6-6.12,7.94-10.37,1.06-2.28,1.56-3.8,1.82-5.55l6.99,1.44c-.34.8-.49,1.14-.95,2.32s-.46,1.18-1.25,2.89h14.4c2.89,0,3.95-.04,6-.27v6.61c-1.79-.15-3.38-.23-6.04-.23h-2.7Z"/>
      <path class="cls-1" d="M108.91,14.82c1.79.27,3.84.34,7.79.34h18.16c3.8,0,5.24-.08,7.79-.34v7.33c-1.82-.19-3.5-.23-7.83-.23h-18.09c-4.25,0-5.51.04-7.83.23v-7.33Z"/>
      <path class="cls-1" d="M150.9,35.22c.15-1.71.23-2.81.23-5.81V7.29c0-3.08-.04-3.46-.27-5.51h7.33c-.15,1.1-.19,3-.19,5.55v5.21c6.46,2.13,11.36,4.37,17.29,7.9l-3.61,6.46c-3.69-2.55-8.17-5.02-11.97-6.61q-1.33-.53-1.71-.76v9.88c0,2.55.08,4.45.23,5.81h-7.33Z"/>
      <path class="cls-1" d="M197.52,12.46c-1.79,3.19-3.38,5.36-5.55,7.75-1.1-2.13-1.79-3.19-3.34-5.13v16.41c0,1.86.08,3.27.23,4.83h-6.16c.15-1.41.23-2.7.23-4.79v-10.37q.04-1.25.08-2.58c-.87,1.1-1.63,1.98-2.62,2.92-.65-3-1.22-4.6-2.36-6.92,2.55-2.09,4.79-5.39,6.57-9.65.8-1.86,1.29-3.46,1.48-4.86l5.93,1.82c-.34.84-.42,1.03-.8,2.17-.76,2.2-1.33,3.57-2.58,6.12v4.48c2.2-2.2,3.69-4.33,5.05-7.18,1.41-2.89,2.32-5.51,2.58-7.22l6.08,1.37c-.38.99-.53,1.37-.8,2.09-.38,1.1-.49,1.37-.76,2.01h8.62c2.24,0,3.72-.08,4.83-.23v5.66c-1.22-.15-2.96-.23-4.79-.23h-6.16v3.53h5.36c1.79,0,2.93-.04,4.14-.19v5.55c-1.41-.11-2.74-.19-4.22-.19h-5.28v3.53h5.32c1.79,0,2.89-.04,4.22-.19v5.58c-1.52-.15-2.7-.19-4.22-.19h-5.32v2.93c0,2.7.08,4.1.23,5.17h-6.23c.15-1.22.23-2.54.23-5.13V12.46Z"/>
      <path class="cls-1" d="M250.53,14.51c-.23.49-.34.76-.72,1.82-1.33,3.34-3.19,6.84-5.09,9.5,1.03,1.79,1.63,2.62,2.62,3.46.49-1.22.68-2.17,1.06-4.9,1.63,1.6,2.55,2.32,4.37,3.42-.99,5.7-2.47,8.17-4.79,8.17-2.17,0-4.52-1.86-7.14-5.62-2.24,2.2-4.33,3.76-7.6,5.66-.99-2.01-1.56-2.92-2.81-4.56-1.14.27-2.66.42-3.95.42-.38,0-.76,0-1.37-.04-.23-1.71-.46-2.77-.87-4.18-.76,3.72-1.79,6.38-3.53,8.93-1.82-2.28-2.74-3.23-4.56-4.71,1.33-2.17,1.94-3.65,2.51-6.23.72-3.38,1.1-8.47,1.1-15.43,0-1.9-.08-3.53-.23-5.01,1.56.11,3.15.19,5.17.19h10.75c-.08-3.15-.11-3.69-.23-4.52h6.19c-.11.72-.19,1.79-.19,2.74v1.79h3.84c-1.44-1.06-1.94-1.41-3.04-2.01l3.65-3.38c1.98,1.18,3.27,2.13,4.83,3.53l-2.24,1.86c2.01,0,2.7-.04,3.76-.19v5.74c-1.37-.15-3.15-.23-4.98-.23h-5.66c.19,3.34.53,6.42,1.06,8.85,1.44-2.81,2.2-4.98,2.54-7.1l5.55,2.05ZM225.19,19.83c-.19,2.58-.42,4.48-.72,6.5,1.22.19,1.67.23,2.24.23.91,0,1.22-.15,1.48-.76.34-.76.46-2.2.57-5.97h-3.57ZM232.03,14.67c1.33,0,1.67-.04,2.51-.11q-.08,1.06-.3,6.95c-.15,3.84-.53,6.5-1.18,7.9,2.01-1.25,3.8-2.66,5.21-4.1-1.52-4.33-2.17-7.9-2.58-14.59h-10.22c0,2.09,0,2.7-.04,3.95h6.61Z"/>
      <path class="cls-1" d="M272.04,25.38c-2.2,4.86-4.75,6.99-8.21,6.99-5.09,0-8.66-4.86-8.66-11.82,0-4.45,1.52-8.47,4.37-11.59,3.34-3.65,8.17-5.58,13.75-5.58,5.09,0,9.57,1.71,12.39,4.67,2.43,2.58,3.72,6.27,3.72,10.56,0,4.94-1.86,9.42-5.05,12.27-2.58,2.32-5.58,3.53-10.9,4.37-.91-2.74-1.63-4.1-3.23-6.23,3.57-.27,5.93-.87,7.98-1.94,2.92-1.56,4.56-4.75,4.56-8.82,0-3.23-1.14-5.81-3.34-7.48-.99-.76-1.82-1.1-3.19-1.33-.84,6.54-2.13,11.44-4.18,15.92ZM265.51,11.47c-2.51,2.13-4.14,5.66-4.14,9.04,0,2.7,1.03,4.83,2.36,4.83.95,0,1.94-1.33,3.08-4.22,1.33-3.42,2.43-7.83,2.85-11.59-1.6.23-2.81.8-4.14,1.94Z"/>
      <path class="cls-2" d="M122.72,55.11c-.42.65-.49.84-.8,2.13-1.71,7.07-3.99,11.82-7.64,16.15-3.53,4.22-7.79,7.26-14.48,10.33-1.48-2.89-2.28-3.91-4.79-6.38,5.47-1.79,9.46-4.1,12.8-7.45,3.19-3.23,5.13-6.69,6.31-11.25h-15.77c-3.69,0-4.37.04-6.38.23v-6.88c1.63.27,2.77.3,6.5.3h18.05c1.25,0,1.94-.11,2.77-.49l3.42,3.31Z"/>
      <path class="cls-1" d="M134.92,79.8v2.62h-6.92c.23-2.09.3-3.38.3-6.19v-19.53c0-1.63-.04-2.81-.15-4.37,1.33.11,2.09.15,4.6.15h20.48c2.36,0,2.93,0,4.71-.15-.08,1.33-.11,2.7-.11,4.48v19.26c0,2.93.08,4.75.27,6.27h-6.88v-2.55h-16.3ZM151.22,58.56h-16.3v15.16h16.3v-15.16Z"/>
      <path class="cls-1" d="M163.69,62.82c1.79.27,3.84.34,7.79.34h18.16c3.8,0,5.24-.08,7.79-.34v7.33c-1.82-.19-3.5-.23-7.83-.23h-18.09c-4.25,0-5.51.04-7.83.23v-7.33Z"/>
    </g>
  </g>
</svg>