<?xml version="1.0" encoding="UTF-8"?>
<svg id="_レイヤー_2" data-name="レイヤー_2" xmlns="http://www.w3.org/2000/svg" viewBox="0 0 262.03 45.47">
  <defs>
    <style>
      .cls-1 {
        fill: #fff;
      }

      .cls-2 {
        fill: none;
        stroke: #fff;
        stroke-width: 2px;
      }
    </style>
  </defs>
  <g id="_レイヤー_1-2" data-name="レイヤー_1">
    <g>
      <path class="cls-1" d="M12.15,24.66c-2.66,2.03-4.05,3.92-4.05,5.54,0,2.34,2.92,3.38,9.76,3.38,5.31,0,11.74-.9,14.71-2.07l.54,8.64c-.85.04-1.12.04-1.8.09-.27.04-.72.09-1.39.18l-1.26.18c-3.78.5-7.51.72-11.21.72-5.08,0-8.68-.5-11.43-1.62-4-1.62-6.03-4.36-6.03-8.14,0-4,1.98-7.29,6.43-10.84l5.71,3.96ZM2.97,4.23c2.92.76,8.42,1.21,14.89,1.21,5.85,0,10.17-.27,12.51-.81l.18,6.88c-2.92,1.44-9.27,5.45-12.51,7.96l-5.53-3.83c.94-.63,1.53-.99,2.21-1.44l1.48-.9c.32-.18.63-.36.67-.4l.45-.23c.09-.04.27-.18.54-.31-1.49.13-2.16.18-3.69.18-3.42,0-5.67-.13-10.12-.54-.9-.09-.95-.09-1.58-.13l.5-7.65ZM28.03,15.71c1.8,1.98,3.24,4.05,4.45,6.43l-4.14,2.25c-1.48-2.83-2.61-4.5-4.46-6.57l4.14-2.11ZM33.79,12.69c1.67,1.8,2.92,3.51,4.5,6.25l-4,2.21c-1.53-2.83-2.79-4.63-4.41-6.43l3.92-2.03Z"/>
      <path class="cls-1" d="M47.92,10.4c-2.29.36-3.15.5-5.45.77-.58-2.52-1.08-3.96-2.07-6.25,4.41-.36,7.78-.9,11.92-1.94,2.92-.72,4.23-1.21,5.44-1.93l3.96,5.98q-.22.09-1.04.36c-1.75.58-4.05,1.21-5.98,1.67v4.59h2.79c1.71,0,2.61-.04,3.69-.22v6.61c-1.12-.13-2.25-.18-3.83-.18h-2.43c2.38,3.38,3.83,4.81,6.79,6.93-1.3,2.21-2.16,3.92-3.06,6.34-1.85-1.75-2.83-3.01-4.09-5.17.09,1.04.13,2.25.13,3.69v6.08c0,2.88.04,4.09.27,5.89h-7.33c.18-1.84.27-3.24.27-5.89v-5.31q0-2.25.09-3.51c-1.39,3.46-2.79,5.67-5.35,8.33-1.21-3.29-1.75-4.46-3.24-6.88,1.75-1.49,2.83-2.79,4.28-5,1.35-2.11,2.2-3.78,2.79-5.49h-2.02c-1.67,0-2.79.04-3.96.22v-6.66c1.21.18,2.25.22,4.09.22h3.33v-3.24ZM69.93,4.82c-.18,1.66-.22,2.97-.22,5.76v16.65c0,2.74.04,4,.22,5.49h-7.15c.18-1.35.22-2.29.22-5.31V10.58c0-2.66-.09-4.14-.22-5.76h7.15ZM80.32,1.89c-.22,2.07-.27,3.78-.27,6.57v28.35c0,2.92-.72,4.68-2.34,5.49-1.26.67-3.78.99-7.79.99-.76,0-1.48-.04-3.1-.09-.54-2.79-.99-4.32-2.12-6.97,2.83.27,4.23.36,6.17.36s2.38-.23,2.38-1.35V8.46c0-2.12-.09-4.27-.27-6.57h7.33Z"/>
      <path class="cls-1" d="M109.48,36.63c0,2.97.04,4.23.22,5.76h-7.2c.18-1.44.27-2.79.27-5.71v-6.34h-8.59c-.63,5.67-1.8,9.49-4.23,13.63-2.52-2.7-3.64-3.65-6.12-5.13,3.42-5.71,4.14-10.84,4.14-30.06,0-2.65-.09-4.45-.23-6.16,1.67.13,2.79.18,5.36.18h26.23c2.79,0,4.14-.04,5.62-.18-.18,1.58-.22,2.83-.22,5.76v29.34c0,4.18-1.71,5.49-7.16,5.49-1.53,0-3.15-.04-4.9-.13-.32-2.38-.72-3.87-1.8-6.48,1.98.18,3.74.27,5,.27,1.62,0,1.98-.18,1.98-.99v-5.54h-8.37v6.3ZM94.77,19.71c-.04,1.85-.04,2.34-.13,4.32h8.14v-4.32h-8.01ZM102.78,9.23h-7.92v4.23h7.92v-4.23ZM117.85,13.46v-4.23h-8.37v4.23h8.37ZM109.48,24.03h8.37v-4.32h-8.37v4.32Z"/>
      <path class="cls-1" d="M149.9,30.6c-2.61,5.76-5.62,8.28-9.72,8.28-6.03,0-10.26-5.76-10.26-14,0-5.26,1.8-10.03,5.17-13.72,3.96-4.32,9.67-6.62,16.29-6.62,6.03,0,11.34,2.03,14.67,5.54,2.88,3.06,4.41,7.42,4.41,12.51,0,5.85-2.21,11.16-5.98,14.54-3.06,2.74-6.62,4.18-12.92,5.17-1.08-3.24-1.93-4.86-3.82-7.38,4.23-.32,7.02-1.04,9.45-2.29,3.46-1.84,5.4-5.62,5.4-10.44,0-3.83-1.35-6.88-3.96-8.87-1.17-.9-2.16-1.3-3.78-1.57-.99,7.74-2.52,13.54-4.95,18.85ZM142.16,14.13c-2.97,2.52-4.9,6.7-4.9,10.71,0,3.2,1.21,5.71,2.79,5.71,1.12,0,2.29-1.57,3.65-4.99,1.58-4.05,2.88-9.27,3.38-13.72-1.89.27-3.33.94-4.91,2.29Z"/>
      <path class="cls-2" d="M182.07,12.2c-3.02-2.74-4.41-3.87-7.6-5.85l4.36-5.04c2.75,1.75,4.46,3.1,6.66,5.04v-1.48c1.62.22,2.97.27,5.49.27h4.86v-.45c0-1.53-.09-2.2-.27-3.19h7.38c-.18.94-.27,1.71-.27,3.24v.41h7.11c2.47,0,4.09-.09,5.53-.27v6.7c-1.3-.18-3.06-.27-5.44-.27h-1.17c2.43,2.43,4.5,5,6.93,8.59l-5.8,3.51v-.04c-.09.76-.09,1.58-.09,3.15v9.63c0,.85.09.99.72.99.81,0,.95-.14.99-1.12.13-1.4.18-3.69.18-6.12,1.84.95,3.01,1.4,4.77,1.89-.22,5.99-.45,7.96-1.17,9.27-.85,1.58-2.61,2.21-6.03,2.21-2.52,0-3.96-.36-4.77-1.12-.63-.58-.86-1.57-.86-3.42v-11.88c0-2.34-.04-3.29-.13-4.23h5.94c-.72-1.21-.81-1.35-1.3-2.16-5.45.58-9.45.9-14.26,1.17-6.39.31-7.11.36-8.01.45l-.45-3.65-3.69,5.45c-3.38-2.88-4.77-3.87-8.42-6.03l3.92-5.17c3.55,1.94,5.04,2.92,8.14,5.31l-.27-2.43c.9.09,1.12.09,5.13.09,1.04-1.48,1.8-2.83,2.43-4.32h-1.75c-2.03,0-3.78.09-5.35.27v-3.91l-3.42,4.54ZM193.77,23.18c-.04.77-.09.99-.09,1.76-.23,6.16-.67,9.09-1.75,11.79s-2.75,4.86-5.67,7.29c-1.44-2.03-2.47-3.15-4.68-5.08-.58,1.44-.95,2.16-.95,2.25q-.18.4-.63,1.21c-.18.36-.31.63-.58,1.26l-5.98-5.13c.72-.76,1.08-1.3,1.71-2.52,1.8-3.46,2.74-6.03,4.05-11.21l5.71,3.96c-1.4,5.35-1.67,6.17-3.24,9.99,4.23-3.06,5.71-6.44,5.71-13.14,0-1.12,0-1.4-.13-2.43h6.52ZM195.16,42.44c.18-1.35.27-2.83.27-4.59v-11.2c0-1.71-.04-2.52-.18-3.74h6.48c-.09,1.21-.13,1.98-.13,3.64v11.38c0,1.58.09,3.24.22,4.5h-6.66ZM199.98,11.3c-.81,1.67-1.67,3.06-2.52,4.23q2.88-.13,6.84-.45c-.63-.72-.85-.99-1.62-1.84l4.14-1.93h-6.84Z"/>
      <path class="cls-1" d="M218.34,29.25c1.21-.95,1.93-1.58,3.15-2.75,3.01-3.06,4.68-4.68,4.91-4.95.04-.72.09-2.03.13-4.95q-5.04.32-6.71.58l-.36-7.11c1.03.09,1.57.13,2.34.13,1.12,0,3.01-.09,4.9-.22q.04-.54.04-1.44c.04-.95.09-2.07.09-3.1,0-1.4-.04-1.84-.18-2.97l7.96.18c-.18,1.08-.45,3.92-.54,6.66l2.47,2.34c-.81.58-1.71,1.62-2.83,3.06l-.04.63c0,.5,0,.58-.04.99,5.62-5.22,10.26-7.74,14.22-7.74,4.36,0,7.24,2.79,7.24,7.02,0,1.53-.27,3.02-1.17,6.79-1.39,5.67-1.93,8.5-1.93,9.63,0,.81.41,1.3,1.08,1.3s1.62-.76,2.47-2.02c1.12-1.62,2.16-3.46,2.7-4.82,1.04,2.83,1.8,4.32,3.78,7.25-3.46,5.67-6.39,7.83-10.71,7.83s-7.06-2.83-7.06-7.24c0-2.52.45-5.22,1.98-11.97.54-2.38.81-3.92.81-4.63,0-.81-.49-1.26-1.3-1.26-1.08,0-2.65.67-4.27,1.84-3.02,2.12-5.85,4.63-7.79,6.93-.04,2.12-.04,3.42-.04,4.72,0,6.39.13,10.98.36,12.73l-8.14.04c.27-1.62.4-4.05.4-6.88v-4.73c-3.19,3.83-3.91,4.73-4.45,5.62l-3.46-7.51Z"/>
    </g>
  </g>
</svg>