<?xml version="1.0" encoding="UTF-8"?>
<svg id="_レイヤー_2" data-name="レイヤー_2" xmlns="http://www.w3.org/2000/svg" viewBox="0 0 106.42 27.74">
  <defs>
    <style>
      .cls-1 {
        fill: #41b5d0;
      }
    </style>
  </defs>
  <g id="_レイヤー_1-2" data-name="レイヤー_1">
    <g>
      <path class="cls-1" d="M5.07,19.9c.1.88.27,1.32.63,1.8.58.73,1.61,1.15,2.85,1.15,1.88,0,3-.83,3-2.19,0-.76-.39-1.42-1.02-1.71-.51-.24-1.12-.42-3.66-1-2.24-.49-3.02-.78-3.93-1.41-1.54-1.07-2.37-2.71-2.37-4.68,0-3.75,3.02-6.12,7.83-6.12,3.1,0,5.46.95,6.78,2.78.61.8.9,1.54,1.22,2.93l-5.17.56c-.29-1.58-1.17-2.24-3.02-2.24-1.49,0-2.58.8-2.58,1.93,0,.68.37,1.2,1.15,1.56q.49.22,3.37.8c1.85.39,3.02.8,3.95,1.39,1.76,1.1,2.63,2.73,2.63,4.97,0,1.83-.58,3.39-1.71,4.49-1.42,1.37-3.56,2.07-6.41,2.07-2.07,0-4.12-.44-5.44-1.19-1.22-.68-2.12-1.73-2.63-3.12-.24-.58-.37-1.15-.54-2.27l5.07-.49Z"/>
      <path class="cls-1" d="M29.65,22.82c0,1.46.05,2.54.19,3.68h-5.39c.15-1.15.2-2.15.2-3.68v-12.29h-2.88c-1.54,0-1.95.02-3.68.17v-4.66c.8.1,2.15.17,3.63.17h10.68c1.71,0,2.68-.05,3.8-.17v4.66c-1.1-.12-2.05-.17-3.8-.17h-2.75v12.29Z"/>
      <path class="cls-1" d="M53.38,26.67c-1.05-.12-1.93-.17-4.02-.17h-7.68c-1.85,0-2.54.02-3.58.07.15-.98.2-1.88.2-3.56v-13.31c0-1.51-.05-2.37-.2-3.56,1,.05,1.68.07,3.58.07h7.78c1.66,0,2.49-.05,3.63-.17v4.56c-1.12-.12-2-.17-3.63-.17h-6.34v3.58h5.27c1.61,0,2.19-.02,3.66-.17v4.51c-1.15-.12-1.97-.17-3.66-.17h-5.27v4.1h6.29c1.85,0,2.93-.05,3.97-.17v4.56Z"/>
      <path class="cls-1" d="M55.86,26.5c.15-1.07.2-2.17.2-3.61v-13.19c0-1.32-.05-2.41-.2-3.56,1.15.05,2.02.07,3.58.07h5.34c4.83,0,7.49,2.32,7.49,6.56s-2.78,6.92-7.51,6.92h-3.85v3.12c0,1.44.07,2.63.19,3.68h-5.24ZM64.54,15.56c1.71,0,2.71-.95,2.71-2.63s-.95-2.56-2.71-2.56h-3.63v5.19h3.63Z"/>
      <path class="cls-1" d="M94.58,19.12c0,6.07-4.23,8.62-9.09,8.62s-9.09-2.55-9.09-8.62v-10.5c0-6.35,4.23-8.62,9.09-8.62s9.09,2.27,9.09,8.58v10.54ZM85.49,4.62c-2.47,0-3.64,1.57-3.64,4.47v9.56c0,2.9,1.18,4.47,3.64,4.47s3.6-1.57,3.6-4.47v-9.56c0-2.9-1.18-4.47-3.6-4.47Z"/>
      <path class="cls-1" d="M106.42,27.39h-5.49V6.07l-3.88,2.55V3.33l4.43-2.98h4.94v27.04Z"/>
    </g>
  </g>
</svg>