<?xml version="1.0" encoding="UTF-8"?>
<svg id="_レイヤー_2" data-name="レイヤー_2" xmlns="http://www.w3.org/2000/svg" viewBox="0 0 542.24 105.11">
  <g id="_レイヤー_1-2" data-name="レイヤー_1">
    <g>
      <g>
        <path d="M12.42,16.14c0,.24-.05.71-.14,1.51,2.13-1.56,4.59-2.27,7.67-2.27,4.21,0,7.67,1.33,10.18,3.88,2.37,2.41,3.55,5.49,3.55,9.47,0,9.09-5.96,14.48-16,14.48-5.96,0-10.65-2.04-13.39-5.82-1.09-1.47-1.66-2.84-2.37-5.3l9.51-1.47c.8,3.12,2.79,4.59,6.2,4.59,3.98,0,6.63-2.51,6.63-6.3s-2.56-6.25-6.53-6.25c-2.98,0-4.92,1.18-5.96,3.5l-8.8-.85c.19-1.42.33-2.56.47-3.88l1.28-14.77c.09-.99.14-2.13.19-3.93,1.99.09,2.46.09,4.73.09h14.15c4.17,0,5.92-.09,7.81-.33v8.28c-2.51-.24-4.69-.33-7.71-.33h-10.98l-.47,5.68Z"/>
        <path d="M42.85,38.67c-1.56-1.56-2.75-3.36-3.46-5.25-1.23-3.36-1.85-7.01-1.85-10.84,0-4.97,1.18-10.13,2.98-13.11,2.89-4.83,7.81-7.48,13.77-7.48,4.59,0,8.61,1.56,11.5,4.4,1.56,1.56,2.75,3.36,3.46,5.25,1.23,3.36,1.85,7.01,1.85,10.89,0,4.97-1.18,10.18-2.98,13.16-2.84,4.73-7.81,7.38-13.82,7.38-4.64,0-8.57-1.51-11.46-4.4ZM47.25,22.2c0,8.47,2.41,12.83,7.1,12.83s7.01-4.26,7.01-12.69-2.46-12.35-7.05-12.35-7.05,4.5-7.05,12.21Z"/>
        <path d="M79.43,38.67c-1.56-1.56-2.75-3.36-3.46-5.25-1.23-3.36-1.85-7.01-1.85-10.84,0-4.97,1.18-10.13,2.98-13.11,2.89-4.83,7.81-7.48,13.77-7.48,4.59,0,8.61,1.56,11.5,4.4,1.56,1.56,2.75,3.36,3.46,5.25,1.23,3.36,1.85,7.01,1.85,10.89,0,4.97-1.18,10.18-2.98,13.16-2.84,4.73-7.81,7.38-13.82,7.38-4.64,0-8.57-1.51-11.45-4.4ZM83.83,22.2c0,8.47,2.41,12.83,7.1,12.83s7.01-4.26,7.01-12.69-2.46-12.35-7.05-12.35-7.05,4.5-7.05,12.21Z"/>
        <path d="M120.09,38.72c0,3.12.05,4.73.24,5.96h-7.9c.24-1.85.33-3.64.33-6.2V7.01c0-2.18-.05-3.46-.19-4.88,1.75.14,3.12.19,6.2.19h28.68c3.17,0,4.69-.05,5.96-.19-.19,1.42-.24,2.89-.24,5.96v30.58c0,2.75-1.14,4.54-3.27,5.16-1.04.33-2.84.47-5.3.47-1.28,0-3.22-.05-5.44-.09-.43-2.65-.95-4.35-2.18-7.01,3.12.28,5.25.43,6.67.43,1.85,0,2.22-.19,2.22-1.04v-8.76h-25.8v10.89ZM129.17,9.18h-9.09v11.93h9.09v-11.93ZM145.88,21.11v-11.93h-9.56v11.93h9.56Z"/>
        <path d="M158.47,12.16h.43c1.51,0,6.06-.38,9.14-.76.76-4.97,1.09-7.76,1.09-9.37v-.8l8.57.8q-.28.95-.76,3.74c-.38,2.18-.71,3.98-.9,5.06.8-.05,1.37-.09,2.04-.09,2.93,0,5.11.62,6.72,1.89,2.41,1.94,3.36,4.83,3.36,10.18,0,7.38-1.09,13.54-2.98,16.8-.66,1.18-1.85,2.22-3.03,2.84-.95.43-2.18.66-3.69.66-2.18,0-4.31-.38-7.53-1.28.14-1.33.14-1.89.14-2.75,0-2.08-.19-3.36-.71-5.63,2.7,1.04,5.11,1.7,6.48,1.7.99,0,1.61-.62,2.13-2.13.71-2.08,1.28-6.91,1.28-10.51,0-2.04-.28-3.17-.9-3.83-.52-.62-1.18-.8-2.84-.8-.43,0-.9,0-1.89.09-.85,3.98-1.85,7.43-3.36,11.79-1.51,4.4-2.27,6.3-5.02,12.21-.38.8-.47,1.04-.76,1.7l-7.81-4.12c3.03-4.02,7.01-13.44,8.9-20.92-3.36.43-5.77.9-7.38,1.33l-.71-7.81ZM193.59,7.1c4.73,5.92,7.76,12.26,9.66,20.21l-7.76,3.69c-1.56-8.66-4.5-15.53-8.85-20.68l6.96-3.22Z"/>
        <path d="M218.58,11.27c-.66,2.56-1.47,7.01-2.04,11.5,3.98-2.56,8.14-3.69,13.54-3.69,8.43,0,14.01,4.4,14.01,11.12,0,4.07-1.94,7.72-5.35,10.03s-7.71,3.41-13.54,3.41c-3.88,0-7.24-.38-11.88-1.42-.14-3.93-.33-5.44-1.09-8.43,4.69,1.47,9.09,2.22,12.64,2.22,6.25,0,10.41-2.22,10.41-5.59,0-2.51-2.46-3.98-6.72-3.98-3.55,0-7.15.95-10.37,2.84-1.23.66-1.7,1.09-2.65,2.13l-7.86-.33c.09-.43.09-.47.14-.95.24-2.27,1.23-9.85,2.18-16.38.14-1.04.24-1.8.28-3.03l8.28.52ZM217.72.85c2.32,1.18,5.16,2.18,9.66,3.36,3.22.85,7.29,1.7,9.51,2.04l-2.51,7.62c-8.57-1.75-14.91-3.64-20.45-6.2l3.79-6.82Z"/>
        <path d="M279.01,28.83c-.57,2.41-1.28,4.26-2.46,6.3,4.54,1.8,9.04,2.46,16.95,2.46-1.33,2.56-1.99,4.5-2.6,7.43-8.42-.62-13.25-1.85-18.74-4.73-2.98,2.32-5.4,3.5-9.75,4.78-1.14-2.75-1.99-4.31-3.22-5.87v.52c0,2.04.05,3.41.28,5.44h-7.53c.24-2.13.28-3.22.28-5.4v-12.26c0-.28.05-1.89.09-4.88-.8,1.23-1.47,2.13-2.41,3.17-.62-3.46-1.18-5.54-2.37-8.71,2.6-2.75,4.69-6.3,6.29-10.84.9-2.41,1.37-4.4,1.61-6.25l7.57,1.66-.8,2.6c1.51.14,3.17.19,4.78.19h6.11c0-2.08-.05-2.75-.24-4.07h7.43c-.14,1.23-.19,2.27-.24,4.07h6.67c2.41,0,4.07-.09,6.01-.28v7.01c-1.7-.14-3.08-.19-5.02-.19h-7.67v2.08h6.53c2.18,0,3.12-.05,4.54-.19-.14,1.37-.19,2.51-.19,4.73v6.63c0,2.41.05,3.46.19,4.78-1.37-.14-2.41-.19-4.59-.19h-7.53ZM265.34,28.83c-1.37,0-2.46.05-3.55.19.14-1.47.19-2.51.19-4.69v-6.77c0-2.37-.05-3.27-.19-4.69,1.47.14,2.27.19,4.5.19h6.82v-2.08h-7.05c-1.89,0-3.03.05-4.73.19v-4.17c-.71,1.89-1.18,2.98-2.13,4.97v26.55c3.46-.8,4.88-1.33,7.1-2.6-1.09-1.09-1.51-1.56-3.17-3.55-.24-.28-.57-.66-.8-.95l5.49-2.6h-2.46ZM268.22,28.83c.57.99,1.33,1.85,2.6,2.89.62-1.14.8-1.56,1.18-2.89h-3.79ZM268.93,19.41v3.12h3.88c.09-1.18.09-1.42.14-3.12h-4.02ZM279.91,19.41c-.05,1.33-.05,1.42-.14,3.12h4.17v-3.12h-4.02Z"/>
        <path d="M300.07,13.82c1.33.09,1.85.14,2.84.14,5.02,0,10.74-.33,17.8-1.09,2.41-.24,3.46-.43,4.4-.76l4.26,5.49c-.9.57-1.66,1.14-3.93,3.22-1.89,1.7-6.44,5.63-7.48,6.44.9-.28,1.18-.33,1.89-.33,1.75,0,3.17.66,3.98,1.85s.95,1.7,1.18,5.11c.19,2.37.8,3.08,2.65,3.08,3.27,0,7.34-.8,9.8-1.94l.8,8.24q-1.66.09-4.45.47c-3.17.47-4.73.62-7.19.62-4.21,0-6.58-.9-7.95-3.03-.76-1.18-.95-2.13-1.09-4.88-.09-1.85-.24-2.56-.62-3.03-.33-.38-.9-.62-1.61-.62-1.94,0-3.98,1.37-7.71,5.11-2.37,2.32-4.5,4.69-6.2,6.77l-6.11-7.01c2.98-1.94,8.24-6.39,16.28-13.82,2.13-1.99,2.75-2.56,4.35-3.98-2.6.43-5.16.71-11.5,1.28-1.7.14-2.65.28-3.98.47l-.43-7.81ZM306.23,1.04c5.21,1.51,12.21,2.27,20.64,2.27l-1.18,7.38c-10.65-.43-15.15-.9-21.68-2.41l2.22-7.24Z"/>
        <path d="M346.45,3.17c1.99.24,3.74.33,6.82.33,4.21,0,9.47-.19,14.25-.57,2.08-.14,2.7-.28,3.6-.66l3.88,5.73q-1.23.71-7.62,6.2c-2.51,2.13-3.36,2.84-6.53,5.16,2.65-.66,4.02-.85,6.48-.85,4.45,0,7.62,1.04,10.13,3.22,2.27,2.04,3.46,4.78,3.46,8.19,0,4.78-2.22,8.57-6.53,11.12-3.27,1.89-7.81,2.98-12.54,2.98-8,0-12.88-3.17-12.88-8.43,0-4.4,3.93-7.57,9.42-7.57,3.41,0,6.44,1.33,8.47,3.64.95,1.04,1.47,1.99,2.18,3.74,2.56-1.14,3.74-2.75,3.74-5.16,0-3.31-3.22-5.35-8.47-5.35s-10.32,1.56-14.58,4.35c-1.47.95-2.98,2.13-4.54,3.55l-4.4-7.19c4.35-2.04,14.34-9.8,20.21-15.62-2.51.28-4.4.38-11.08.71-1.28.05-2.18.14-3.12.24l-.33-7.76ZM358.19,34.03c-1.09,0-1.85.62-1.85,1.56,0,1.28,1.51,2.08,4.07,2.08.57,0,.66,0,1.56-.14-.62-2.27-1.94-3.5-3.79-3.5Z"/>
      </g>
      <g>
        <path d="M9.89,68.71c0-2.46-.09-4.35-.33-5.87h9.09c-.28,1.56-.38,2.89-.38,5.68v3.79l16.52-1.8c1.89-.19,2.41-.33,3.36-.76l4.73,4.35q-.76.8-1.56,2.6c-1.37,2.89-3.22,6.01-5.11,8.38-1.8,2.32-3.5,3.93-6.82,6.48-2.27-2.46-3.98-3.83-6.63-5.35,1.94-1.14,3.31-2.08,4.97-3.64,1.51-1.37,2.32-2.41,3.46-4.35l-12.97,1.51v10.13c0,3.46.09,4.21.76,4.73.52.52,2.22.76,5.02.76,5.77,0,11.12-.71,15.24-1.99l.28,8.85h-.76c-1.18.05-1.23.09-2.22.19-4.54.43-9.89.76-12.64.76-4.12,0-7.24-.28-9.09-.85-2.08-.66-3.79-2.41-4.4-4.5-.47-1.66-.52-2.32-.52-6.86v-10.32l-2.84.33c-3.79.43-4.4.52-6.25.99l-.8-8.14c.9.05,1.51.09,1.75.09.66,0,2.89-.19,4.45-.33l3.69-.43v-4.45Z"/>
        <path d="M62.05,63.93q-.19,1.61-.52,10.98c-.28,9.89-1.23,15.15-3.5,20.31-1.56,3.5-3.36,6.06-6.58,9.47-2.41-3.17-3.74-4.5-6.77-6.63,2.7-2.41,4.17-4.4,5.63-7.53,2.22-4.64,2.98-10.51,2.98-22.77,0-2.08-.05-3.12-.19-4.35l8.95.52ZM75.44,63.17c-.28,1.94-.33,2.7-.38,5.49l-.24,24.8c2.56-1.61,4.07-2.98,5.68-5.21,1.7-2.41,2.84-4.88,3.69-8.09,2.37,2.93,3.6,4.17,6.3,6.25-2.13,5.3-4.59,8.95-8.19,12.02-2.84,2.41-5.16,3.64-9.94,5.4-1.33.47-1.7.62-2.32.99l-4.07-4.26c.43-1.23.52-2.04.52-3.98l.24-28.02v-1.7c0-1.51-.05-2.56-.19-3.69h8.9Z"/>
        <path d="M131.58,69.04c-.52.8-.62,1.04-.99,2.65-2.13,8.8-4.97,14.72-9.51,20.12-4.4,5.25-9.7,9.04-18.03,12.87-1.85-3.6-2.84-4.88-5.96-7.95,6.82-2.22,11.79-5.11,15.95-9.28,3.98-4.02,6.39-8.33,7.86-14.01h-19.64c-4.59,0-5.44.05-7.95.28v-8.57c2.04.33,3.46.38,8.09.38h22.48c1.56,0,2.41-.14,3.46-.62l4.26,4.12Z"/>
        <path d="M139.24,88.78c-1.47-1.75-2.51-2.79-4.17-4.02,2.89-1.89,4.12-3.5,4.97-6.48-1.89,0-2.98.05-4.35.24v-6.82c1.56.19,2.75.24,4.97.24v-3.31c-2.13,0-2.79.05-4.02.19v-6.77c1.66.19,3.27.28,5.44.28h12.35c2.79,0,4.02-.05,5.44-.28v6.77c-1.09-.14-1.56-.14-3.03-.19v3.31c1.85-.05,2.6-.05,3.69-.19v6.72c-1.18-.14-1.94-.14-3.69-.19v2.84c0,1.75,0,2.75.05,3.93h4.07c-.14.8-.19,1.37-.19,2.51v1.28h8.85c2.6,0,4.73-.09,5.92-.24v6.86c-1.37-.14-3.31-.24-5.77-.24h-8.99v2.51h12.5c2.46,0,4.21-.09,5.73-.24v7.01c-1.75-.19-3.6-.28-6.39-.28h-30.58c-2.7,0-4.54.09-6.25.28v-7.01c1.56.14,3.31.24,5.73.24h11.97v-2.51h-8.57c-2.22,0-4.21.09-5.68.24v-6.67ZM147.24,78.27c-.66,4.5-2.27,7.67-5.44,10.51.85.05,1.23.05,2.22.05h9.47v-1.8h-3.69c.14-1.7.24-3.69.24-5.82v-2.93h-2.79ZM147.57,71.93h2.46v-3.31h-2.46v3.31ZM168.63,79.6v1.23c.14-.05.24-.05.28-.05q2.08,0,2.08-.95v-14.91c0-1.66-.05-2.56-.24-3.64h7.62c-.19.95-.24,2.27-.24,4.21v15.81c0,3.22-.66,4.59-2.51,5.35-1.04.47-2.79.66-5.44.66-.8,0-1.47,0-3.5-.09-.24-2.13-.43-2.98-.99-4.83h-4.12c.14-.9.19-2.04.19-3.41v-11.88c0-1.47-.05-2.56-.19-3.55h7.19c-.09.85-.14,1.85-.14,3.12v12.92Z"/>
        <path d="M225.09,68.99c-.71.76-.85.99-1.47,2.46-3.03,7.1-7.1,11.88-13.21,15.67-1.66-2.13-3.22-3.64-5.3-5.16-.28,4.92-1.09,8.38-2.75,11.5-1.66,3.03-4.12,5.73-7.38,8-1.94,1.33-3.55,2.18-6.67,3.64-1.89-3.74-2.65-4.88-5.4-7.67,5.21-1.66,8.61-3.74,10.84-6.58,2.27-2.93,3.08-6.3,3.08-12.59,0-1.51-.05-2.22-.28-3.27h8.9c-.14.95-.19,1.37-.24,4.07,0,.05-.05,1.18-.05,1.66q.28-.19,1.09-.57c3.46-1.75,6.25-4.59,7.95-8.05h-22.58c-3.6,0-5.25.09-7.53.33v-8.28c2.18.33,3.79.43,7.67.43h24.8c2.65,0,2.98-.05,4.07-.52l4.45,4.92Z"/>
        <path d="M234.27,64.64c5.96,3.5,9.04,5.68,13.02,9.28l-5.58,7.38c-4.12-4.31-8.14-7.43-12.87-9.99l5.44-6.67ZM229.3,94.03c4.83-.38,9.8-1.56,14.25-3.41,5.96-2.46,10.22-6.01,13.87-11.69,1.99-3.03,3.27-5.63,4.64-9.28,2.32,2.79,3.41,3.74,6.96,6.34-4.31,9.32-8.8,14.91-15.43,19.17-5.11,3.31-9.61,5.06-18.41,7.1-1.85.43-2.13.47-3.41.85l-2.46-9.09Z"/>
        <path d="M303.71,77.75c-.57,6.44-1.28,9.61-2.89,13.16-1.85,3.93-4.64,7.19-8.47,9.99-2.32,1.66-4.17,2.65-7.81,4.21-1.7-3.5-2.75-4.88-5.54-7.48,7.19-2.46,11.41-5.54,13.77-10.03,1.37-2.6,2.04-5.4,2.37-9.85h-9.66c-2.79,4.4-4.21,6.15-7.53,9.23-2.04-2.27-3.6-3.5-6.91-5.3,4.59-3.88,7.48-7.62,9.89-12.92,1.33-2.84,1.94-4.73,2.27-6.91l8.71,1.8c-.43.99-.62,1.42-1.18,2.89q-.57,1.47-1.56,3.6h17.94c3.6,0,4.92-.05,7.48-.33v8.24c-2.23-.19-4.21-.28-7.53-.28h-3.36Z"/>
        <path d="M318.56,78.65c2.22.33,4.78.43,9.7.43h22.62c4.73,0,6.53-.09,9.7-.43v9.14c-2.27-.24-4.36-.28-9.75-.28h-22.53c-5.3,0-6.86.05-9.75.28v-9.14Z"/>
        <path d="M370.86,104.07c.19-2.13.28-3.5.28-7.24v-27.55c0-3.83-.05-4.31-.33-6.86h9.14c-.19,1.37-.24,3.74-.24,6.91v6.48c8.05,2.65,14.15,5.44,21.54,9.85l-4.5,8.05c-4.59-3.17-10.18-6.25-14.91-8.24q-1.66-.66-2.13-.95v12.31c0,3.17.09,5.54.28,7.24h-9.13Z"/>
        <path d="M413.17,66.06c2.46,4.59,3.74,7.9,5.68,14.72l-8.19,2.51c-1.37-5.96-3.12-11.03-5.3-15.1l7.81-2.13ZM447.16,67.05c-.38,1.09-.57,1.8-1.09,4.5-1.7,8.19-4.5,14.63-8.57,19.93-4.17,5.35-9.37,9.32-17.28,13.16-1.8-3.36-2.89-4.83-5.82-7.57,5.68-2.04,9.8-4.5,13.68-8.19,5.06-4.78,7.86-10.27,9.47-18.6.43-2.18.57-3.41.62-5.35l8.99,2.13ZM425.86,63.84c2.27,4.02,3.88,8.14,5.63,14.15l-8.14,2.51c-1.42-5.59-2.79-9.51-5.25-14.58l7.76-2.08Z"/>
        <path d="M451.27,78.65c2.22.33,4.78.43,9.7.43h22.62c4.73,0,6.53-.09,9.7-.43v9.14c-2.27-.24-4.35-.28-9.75-.28h-22.53c-5.3,0-6.86.05-9.75.28v-9.14Z"/>
        <path d="M513.79,63.93q-.19,1.61-.52,10.98c-.28,9.89-1.23,15.15-3.5,20.31-1.56,3.5-3.36,6.06-6.58,9.47-2.41-3.17-3.74-4.5-6.77-6.63,2.7-2.41,4.17-4.4,5.63-7.53,2.22-4.64,2.98-10.51,2.98-22.77,0-2.08-.05-3.12-.19-4.35l8.95.52ZM527.18,63.17c-.28,1.94-.33,2.7-.38,5.49l-.24,24.8c2.56-1.61,4.07-2.98,5.68-5.21,1.7-2.41,2.84-4.88,3.69-8.09,2.37,2.93,3.6,4.17,6.3,6.25-2.13,5.3-4.59,8.95-8.19,12.02-2.84,2.41-5.16,3.64-9.94,5.4-1.33.47-1.7.62-2.32.99l-4.07-4.26c.43-1.23.52-2.04.52-3.98l.24-28.02v-1.7c0-1.51-.05-2.56-.19-3.69h8.9Z"/>
      </g>
    </g>
  </g>
</svg>