<?xml version="1.0" encoding="UTF-8"?>
<svg id="_レイヤー_2" data-name="レイヤー 2" xmlns="http://www.w3.org/2000/svg" viewBox="0 0 449.1 45.16">
  <defs>
    <style>
      .cls-1 {
        fill: #000;
        stroke-width: 0px;
      }
    </style>
  </defs>
  <g id="_レイヤー_1-2" data-name="レイヤー 1">
    <g>
      <path class="cls-1" d="M17.8,8.57c.52.95.76,1.33,1.14,2.13,1.37-.05,2.22-.09,2.93-.14-.14,1.18-.19,2.18-.19,4.12v5.92c0,1.94.05,2.93.19,4.12-1.18-.09-2.6-.14-4.83-.14h-7.34v14.63c0,3.22.05,4.54.24,5.87H2.46c.19-1.51.28-3.12.28-6.39v-22.58c0-1.89-.05-3.22-.14-4.64-.95-1.28-1.37-1.75-2.6-2.93C3.74,5.96,5.82,3.36,6.91,0l7.05,1.04q-.38.76-.8,1.7h5.21c2.22,0,3.41-.09,4.54-.28v3.41c1.56-1.99,2.32-3.6,2.79-5.87l7.1,1.04q-.43.95-.76,1.7h7.19c2.79,0,3.83-.05,5.35-.24v6.34c-1.37-.19-2.75-.24-4.97-.24h-1.94c.66,1.09.8,1.37,1.23,2.08,2.22,0,3.41-.05,4.4-.19-.14,1.33-.19,3.03-.19,5.59v23.05c0,2.7-.9,4.5-2.51,5.11-1.37.52-2.75.62-7.48.62-.24,0-.85,0-1.66-.05-.14-1.66-.24-2.18-.47-3.36-1.04-.05-1.56-.05-2.18-.05h-9.61v2.08h-6.67c.14-1.28.19-2.37.19-4.07v-9.7c0-1.61-.05-2.79-.14-3.98,1.09.09,2.41.14,4.07.14h12.17c1.75,0,2.98-.05,4.12-.14-.09.99-.14,2.22-.14,3.98v8.52c.8.05,1.33.05,1.85.05,1.33,0,1.51-.14,1.51-1.09v-12.64h-7.81c-2.27,0-3.55.05-4.78.14.14-1.23.19-2.27.19-4.12v-5.92c0-1.8-.05-2.84-.19-4.12.47.05.52.05,1.33.09-1.09-.9-1.47-1.23-2.46-1.99-.71-.05-1.56-.09-2.37-.09h-2.27ZM12.17,10.7c-.33-.85-.47-1.14-.95-2.13h-1.66c-.66.9-1.04,1.33-1.75,2.13h4.35ZM9.7,16.19h5.4v-1.33h-5.4v1.33ZM9.7,20.83h5.4v-1.33h-5.4v1.33ZM19.22,31.62h7.1v-1.51h-7.1v1.51ZM19.22,36.97h7.1v-1.51h-7.1v1.51ZM31.9,10.7c-.38-.71-.71-1.33-1.14-2.08h-1.99c-.57.85-.9,1.33-1.56,2.08h4.69ZM30.44,16.19h5.73v-1.33h-5.73v1.33ZM30.44,20.83h5.73v-1.33h-5.73v1.33Z"/>
      <path class="cls-1" d="M57.12,29.54c-2.27,0-3.79.05-5.4.14.19-1.66.24-2.89.24-5.02v-10.93c0-2.51-.05-3.83-.24-5.3,1.09.09,2.04.14,3.64.19-.9-1.8-1.94-3.41-3.69-5.63l6.91-2.27c1.99,2.51,2.93,3.88,4.21,6.3l-4.59,1.61h9.28c-.8-2.37-1.42-3.74-3.27-6.91l7.1-1.56c1.56,2.56,2.18,3.74,3.46,6.86l-6.06,1.61h7.72c1.89-2.84,3.17-5.16,4.4-8.09l7.43,2.27c-1.47,2.46-2.51,4.07-3.83,5.82,1.66,0,2.89-.05,4.07-.19-.19,1.28-.24,2.65-.24,5.3v10.89c0,2.27.05,3.46.24,5.06-1.56-.09-3.27-.14-5.44-.14h-9.61v1.99h12.83c2.75,0,4.21-.05,5.59-.24v7.1c-1.42-.19-3.74-.28-6.44-.28h-11.98v1.89c0,2.56.05,3.46.28,5.16h-7.76c.24-1.61.28-2.7.28-5.16v-1.89h-11.64c-2.7,0-4.83.09-6.34.28v-7.1c1.56.19,2.98.24,5.63.24h12.35v-1.99h-9.14ZM66.26,14.48h-7.15v1.99h7.15v-1.99ZM66.26,21.73h-7.15v2.04h7.15v-2.04ZM81.12,16.47v-1.99h-7.67v1.99h7.67ZM81.12,23.76v-2.04h-7.67v2.04h7.67Z"/>
      <path class="cls-1" d="M105.07,8.19c0-2.46-.09-4.35-.33-5.87h9.09c-.28,1.56-.38,2.89-.38,5.68v3.79l16.52-1.8c1.89-.19,2.41-.33,3.36-.76l4.73,4.35q-.76.8-1.56,2.6c-1.37,2.89-3.22,6.01-5.11,8.38-1.8,2.32-3.5,3.93-6.82,6.48-2.27-2.46-3.98-3.83-6.63-5.35,1.94-1.14,3.31-2.08,4.97-3.64,1.51-1.37,2.32-2.41,3.46-4.35l-12.97,1.51v10.13c0,3.46.09,4.21.76,4.73.52.52,2.22.76,5.02.76,5.77,0,11.12-.71,15.24-1.99l.28,8.85h-.76c-1.18.05-1.23.09-2.22.19-4.54.43-9.89.76-12.64.76-4.12,0-7.24-.28-9.09-.85-2.08-.66-3.79-2.41-4.4-4.5-.47-1.66-.52-2.32-.52-6.86v-10.32l-2.84.33c-3.79.43-4.4.52-6.25.99l-.8-8.14c.9.05,1.51.09,1.75.09.66,0,2.89-.19,4.45-.33l3.69-.43v-4.45Z"/>
      <path class="cls-1" d="M157.22,3.41q-.19,1.61-.52,10.98c-.28,9.89-1.23,15.15-3.5,20.31-1.56,3.5-3.36,6.06-6.58,9.47-2.41-3.17-3.74-4.5-6.77-6.63,2.7-2.41,4.17-4.4,5.63-7.53,2.22-4.64,2.98-10.51,2.98-22.77,0-2.08-.05-3.12-.19-4.35l8.95.52ZM170.62,2.65c-.28,1.94-.33,2.7-.38,5.49l-.24,24.8c2.56-1.61,4.07-2.98,5.68-5.21,1.7-2.41,2.84-4.88,3.69-8.09,2.37,2.93,3.6,4.17,6.3,6.25-2.13,5.3-4.59,8.95-8.19,12.02-2.84,2.41-5.16,3.64-9.94,5.4-1.33.47-1.7.62-2.32.99l-4.07-4.26c.43-1.23.52-2.04.52-3.98l.24-28.02v-1.7c0-1.51-.05-2.56-.19-3.69h8.9Z"/>
      <path class="cls-1" d="M226.75,8.52c-.52.8-.62,1.04-.99,2.65-2.13,8.8-4.97,14.72-9.51,20.12-4.4,5.25-9.7,9.04-18.03,12.87-1.85-3.6-2.84-4.88-5.96-7.95,6.82-2.22,11.79-5.11,15.95-9.28,3.98-4.02,6.39-8.33,7.86-14.01h-19.64c-4.59,0-5.44.05-7.95.28V4.64c2.04.33,3.46.38,8.09.38h22.48c1.56,0,2.41-.14,3.46-.62l4.26,4.12Z"/>
      <path class="cls-1" d="M272.94,8.47c-.71.76-.85.99-1.47,2.46-3.03,7.1-7.1,11.88-13.21,15.67-1.66-2.13-3.22-3.64-5.3-5.16-.28,4.92-1.09,8.38-2.75,11.5-1.66,3.03-4.12,5.73-7.38,8-1.94,1.33-3.55,2.18-6.67,3.64-1.89-3.74-2.65-4.88-5.4-7.67,5.21-1.66,8.61-3.74,10.84-6.58,2.27-2.93,3.08-6.3,3.08-12.59,0-1.51-.05-2.22-.28-3.27h8.9c-.14.95-.19,1.37-.24,4.07,0,.05-.05,1.18-.05,1.66q.28-.19,1.09-.57c3.46-1.75,6.25-4.59,7.95-8.05h-22.58c-3.6,0-5.25.09-7.53.33V3.64c2.18.33,3.79.43,7.67.43h24.8c2.65,0,2.98-.05,4.07-.52l4.45,4.92Z"/>
      <path class="cls-1" d="M282.12,4.12c5.96,3.5,9.04,5.68,13.02,9.28l-5.58,7.38c-4.12-4.31-8.14-7.43-12.87-9.99l5.44-6.67ZM277.15,33.51c4.83-.38,9.8-1.56,14.25-3.41,5.96-2.46,10.22-6.01,13.87-11.69,1.99-3.03,3.27-5.63,4.64-9.28,2.32,2.79,3.41,3.74,6.96,6.34-4.31,9.32-8.8,14.91-15.43,19.17-5.11,3.31-9.61,5.06-18.41,7.1-1.85.43-2.13.47-3.41.85l-2.46-9.09Z"/>
      <path class="cls-1" d="M351.55,17.23c-.57,6.44-1.28,9.61-2.89,13.16-1.85,3.93-4.64,7.19-8.47,9.99-2.32,1.66-4.17,2.65-7.81,4.21-1.7-3.5-2.75-4.88-5.54-7.48,7.19-2.46,11.41-5.54,13.77-10.03,1.37-2.6,2.04-5.4,2.37-9.85h-9.66c-2.79,4.4-4.21,6.15-7.53,9.23-2.04-2.27-3.6-3.5-6.91-5.3,4.59-3.88,7.48-7.62,9.89-12.92,1.33-2.84,1.94-4.73,2.27-6.91l8.71,1.8c-.43.99-.62,1.42-1.18,2.89q-.57,1.47-1.56,3.6h17.94c3.6,0,4.92-.05,7.48-.33v8.24c-2.22-.19-4.21-.28-7.53-.28h-3.36Z"/>
      <path class="cls-1" d="M366.41,18.13c2.22.33,4.78.43,9.7.43h22.62c4.73,0,6.53-.09,9.7-.43v9.14c-2.27-.24-4.35-.28-9.75-.28h-22.53c-5.3,0-6.86.05-9.75.28v-9.14Z"/>
      <path class="cls-1" d="M418.71,43.55c.19-2.13.28-3.5.28-7.24V8.76c0-3.83-.05-4.31-.33-6.86h9.13c-.19,1.37-.24,3.74-.24,6.91v6.48c8.05,2.65,14.15,5.44,21.54,9.85l-4.5,8.05c-4.59-3.17-10.18-6.25-14.91-8.24q-1.66-.66-2.13-.95v12.31c0,3.17.09,5.54.28,7.24h-9.13Z"/>
    </g>
  </g>
</svg>