<svg width="230" height="72" viewBox="0 0 230 72" fill="none" xmlns="http://www.w3.org/2000/svg">
<path d="M4.10671 11.78H14.3667V13.418H4.10671V11.78ZM9.20071 16.1H15.2667V17.684H9.20071V16.1ZM8.30071 12.68H10.0827V21.608L8.30071 21.392V12.68ZM4.01671 14.714L5.79871 14.912C5.31271 18.548 4.17871 21.356 2.14471 23.12C1.85671 22.814 1.13671 22.22 0.740712 21.968C2.72071 20.456 3.65671 17.918 4.01671 14.714ZM5.25871 17.018C6.48271 20.528 9.16471 21.104 12.6207 21.104C13.4127 21.104 16.4727 21.104 17.4987 21.068C17.2467 21.482 16.9587 22.292 16.8867 22.814H12.5307C8.30071 22.814 5.42071 21.968 3.87271 17.504L5.25871 17.018ZM8.28271 6.326H10.0827V9.404H8.28271V6.326ZM1.60471 8.288H16.8327V12.464H15.0867V9.89H3.27871V12.464H1.60471V8.288ZM20.6487 10.88H24.2127V12.068H20.6487V10.88ZM21.4047 6.344H22.9887V8.972H21.4047V6.344ZM20.1987 17.054H24.9687V21.896H20.1987V20.564H23.4927V18.386H20.1987V17.054ZM18.3987 7.892H26.0127V10.628H24.5727V9.242H19.7847V10.628H18.3987V7.892ZM19.4067 17.054H20.8467V22.706H19.4067V17.054ZM23.9247 10.88H24.1947L24.4467 10.808L25.4187 11.258C24.2487 14.624 21.6027 16.928 18.7587 18.134C18.5607 17.774 18.1647 17.198 17.8587 16.91C20.4687 15.956 22.9887 13.796 23.9247 11.132V10.88ZM21.2247 9.566L22.6287 9.926C21.8367 11.762 20.4507 13.418 19.0287 14.498C18.7947 14.228 18.2367 13.706 17.9127 13.49C19.3167 12.572 20.5587 11.132 21.2247 9.566ZM19.5867 13.364L20.5047 12.338C22.3587 13.562 24.9507 15.38 26.2287 16.514L25.2387 17.72C24.0147 16.532 21.4767 14.66 19.5867 13.364ZM26.1567 7.1H34.5807V8.558H26.1567V7.1ZM28.3167 14.048V15.506H32.5287V14.048H28.3167ZM28.3167 16.73V18.224H32.5287V16.73H28.3167ZM28.3167 11.366V12.824H32.5287V11.366H28.3167ZM26.7867 10.07H34.1487V19.52H26.7867V10.07ZM29.5407 7.838L31.3947 8.072C31.0707 9.134 30.6747 10.286 30.3687 11.042L28.9467 10.754C29.1627 9.926 29.4147 8.702 29.5407 7.838ZM28.2807 19.754L29.7027 20.618C28.7667 21.536 27.2187 22.472 25.9047 22.994C25.6347 22.688 25.1487 22.202 24.7887 21.896C26.1027 21.41 27.5787 20.51 28.2807 19.754ZM30.8727 20.636L32.1147 19.826C33.1407 20.492 34.4727 21.482 35.1387 22.166L33.8067 23.048C33.1947 22.382 31.8987 21.338 30.8727 20.636ZM46.6767 7.892H48.2787V17.954H46.6767V7.892ZM49.8987 6.56H51.5547V20.852C51.5547 21.86 51.3387 22.346 50.7267 22.652C50.1327 22.922 49.1247 22.976 47.7567 22.976C47.6847 22.49 47.4327 21.734 47.2167 21.212C48.2247 21.248 49.1967 21.248 49.5207 21.248C49.8087 21.23 49.8987 21.158 49.8987 20.852V6.56ZM39.7827 6.398H41.4027V23.012H39.7827V6.398ZM43.5087 15.182H45.0567V19.97C45.0567 20.69 44.9487 21.104 44.4627 21.374C43.9947 21.626 43.3107 21.644 42.3567 21.626C42.3027 21.194 42.1047 20.582 41.9067 20.168C42.5547 20.186 43.0947 20.186 43.2747 20.186C43.4547 20.186 43.5087 20.132 43.5087 19.952V15.182ZM36.2907 15.182H44.1207V16.712H37.8207V21.554H36.2907V15.182ZM35.5167 12.032H45.5967V13.58H35.5167V12.032ZM37.3167 8.828H44.8947V10.376H36.9927L37.3167 8.828ZM37.1007 6.704L38.6847 7.028C38.2707 8.9 37.5687 10.826 36.8487 12.068C36.5067 11.87 35.7687 11.582 35.3547 11.438C36.1467 10.25 36.7587 8.432 37.1007 6.704ZM58.4777 21.5L55.7777 8.252H57.9377L59.1617 15.146C59.4137 16.55 59.6477 17.972 59.8817 19.412H59.9537C60.2417 17.972 60.5477 16.55 60.8537 15.146L62.5457 8.252H64.3997L66.1097 15.146C66.4337 16.532 66.7037 17.972 67.0277 19.412H67.1177C67.3337 17.972 67.5677 16.55 67.7837 15.146L69.0437 8.252H71.0417L68.4317 21.5H65.8397L64.0757 14.138C63.8417 13.112 63.6437 12.122 63.4637 11.114H63.3917C63.1937 12.122 62.9597 13.112 62.7617 14.138L61.0157 21.5H58.4777ZM76.4337 21.752C73.7337 21.752 71.6097 19.826 71.6097 16.568C71.6097 13.346 73.8237 11.348 76.1277 11.348C78.7377 11.348 80.1597 13.238 80.1597 16.046C80.1597 16.46 80.1237 16.856 80.0697 17.108H73.6437C73.8057 18.998 74.9937 20.114 76.7037 20.114C77.5857 20.114 78.3237 19.844 79.0617 19.376L79.7817 20.708C78.8637 21.32 77.7297 21.752 76.4337 21.752ZM73.6077 15.668H78.3597C78.3597 13.958 77.6037 12.986 76.1637 12.986C74.9217 12.986 73.8237 13.94 73.6077 15.668ZM86.395 21.752C85.495 21.752 84.487 21.284 83.659 20.474H83.587L83.407 21.5H81.769V7.172H83.857V10.952L83.767 12.644C84.631 11.906 85.675 11.348 86.737 11.348C89.239 11.348 90.661 13.346 90.661 16.388C90.661 19.79 88.627 21.752 86.395 21.752ZM85.999 20.024C87.421 20.024 88.519 18.746 88.519 16.424C88.519 14.354 87.835 13.076 86.179 13.076C85.423 13.076 84.667 13.49 83.857 14.282V19.124C84.595 19.79 85.387 20.024 85.999 20.024ZM94.6013 20.402C97.4993 20.312 102.125 20.114 106.445 19.88L106.409 21.428C102.233 21.716 97.7873 22.004 94.7633 22.166L94.6013 20.402ZM99.4073 11.366L101.333 11.78C100.469 14.984 99.2273 18.836 98.1653 21.248L96.5633 20.816C97.6073 18.368 98.7953 14.354 99.4073 11.366ZM102.719 16.334L104.303 15.65C105.869 17.702 107.615 20.438 108.299 22.274L106.571 23.084C105.959 21.266 104.303 18.44 102.719 16.334ZM93.8453 8.72H107.975V10.358H93.8453V8.72ZM92.9993 8.72H94.7093V13.4C94.7093 16.19 94.4393 20.348 92.7473 23.03C92.4413 22.742 91.7033 22.238 91.2893 22.076C92.8733 19.556 92.9993 15.938 92.9993 13.4V8.72ZM99.4613 6.308H101.225V9.512H99.4613V6.308ZM109.163 12.86H125.057V14.444H109.163V12.86ZM112.115 8.792H123.833V10.358H112.115V8.792ZM112.241 20.6H122.177V22.184H112.241V20.6ZM116.615 6.308H118.415V13.814H116.615V6.308ZM111.323 16.028H123.113V23.102H121.313V17.594H113.051V23.138H111.323V16.028ZM112.349 6.416L114.041 6.83C113.285 9.044 112.025 11.222 110.783 12.626C110.441 12.356 109.649 11.906 109.235 11.708C110.549 10.448 111.683 8.414 112.349 6.416ZM129.953 13.382V19.862H128.315V14.966H126.137V13.382H129.953ZM129.953 19.178C130.727 20.456 132.185 21.032 134.183 21.104C136.253 21.194 140.465 21.14 142.787 20.978C142.589 21.374 142.319 22.148 142.247 22.652C140.123 22.742 136.271 22.778 134.183 22.688C131.897 22.598 130.349 22.022 129.233 20.6C128.477 21.356 127.685 22.076 126.785 22.868L125.939 21.194C126.713 20.654 127.649 19.916 128.477 19.178H129.953ZM126.263 7.73L127.559 6.776C128.639 7.586 129.899 8.81 130.457 9.674L129.053 10.754C128.549 9.854 127.325 8.594 126.263 7.73ZM135.713 8.558H137.351V20.654H135.713V8.558ZM133.355 14.894V15.902H139.763V14.894H133.355ZM133.355 12.896V13.868H139.763V12.896H133.355ZM131.897 11.798H141.311V17H131.897V11.798ZM130.979 6.92H142.229V9.314H140.645V8.162H132.491V9.314H130.979V6.92ZM131.411 9.674H141.725V10.88H131.411V9.674ZM130.745 17.9H142.499V19.178H130.745V17.9ZM146.297 7.55H157.673V9.17H146.297V7.55ZM146.297 11.726H157.673V13.328H146.297V11.726ZM146.225 16.01H157.727V17.612H146.225V16.01ZM145.325 7.55H146.999V14.066C146.999 16.856 146.675 20.726 144.497 23.12C144.227 22.796 143.543 22.22 143.165 22.004C145.145 19.79 145.325 16.586 145.325 14.048V7.55ZM157.043 7.55H158.735V20.87C158.735 21.878 158.501 22.364 157.835 22.634C157.169 22.904 156.107 22.94 154.433 22.922C154.361 22.472 154.091 21.734 153.857 21.284C155.027 21.338 156.233 21.32 156.575 21.32C156.917 21.302 157.043 21.194 157.043 20.87V7.55ZM150.923 8.18H152.651V22.832H150.923V8.18ZM173.117 13.382C173.117 18.026 172.055 20.6 167.843 22.472L166.331 21.032C169.697 19.808 171.281 18.26 171.281 13.472V8.918C171.281 8.216 171.227 7.622 171.173 7.37H173.225C173.189 7.622 173.117 8.216 173.117 8.918V13.382ZM166.619 7.496C166.583 7.748 166.529 8.288 166.529 8.936V15.47C166.529 16.19 166.583 16.964 166.601 17.216H164.603C164.639 16.964 164.693 16.208 164.693 15.47V8.936C164.693 8.504 164.657 7.964 164.603 7.496H166.619ZM161.075 10.88C161.291 10.916 162.119 11.024 162.929 11.024H174.809C175.673 11.024 176.249 10.97 176.609 10.916V12.806C176.321 12.788 175.673 12.752 174.809 12.752H162.929C162.101 12.752 161.363 12.806 161.075 12.824V10.88ZM178.967 13.472C179.561 13.526 180.659 13.58 181.649 13.58C183.323 13.58 189.965 13.58 191.423 13.58C192.305 13.58 193.007 13.508 193.439 13.472V15.704C193.043 15.686 192.215 15.614 191.441 15.614C189.965 15.614 183.323 15.614 181.649 15.614C180.641 15.614 179.579 15.65 178.967 15.704V13.472ZM207.677 7.19C208.127 7.856 208.775 8.954 209.135 9.656L207.947 10.178C207.587 9.44 207.011 8.378 206.525 7.676L207.677 7.19ZM209.711 6.434C210.197 7.1 210.881 8.234 211.205 8.882L210.035 9.404C209.657 8.63 209.063 7.604 208.559 6.92L209.711 6.434ZM199.739 7.874C199.667 8.342 199.613 9.008 199.613 9.512C199.613 10.538 199.613 17.504 199.613 18.836C199.613 19.7 199.991 19.916 200.837 20.078C201.395 20.168 202.241 20.204 203.087 20.204C204.977 20.204 207.803 20.006 209.297 19.61V21.68C207.677 21.932 204.959 22.058 202.997 22.058C201.881 22.058 200.801 22.004 200.045 21.878C198.587 21.608 197.759 20.87 197.759 19.376C197.759 17.486 197.759 10.538 197.759 9.512C197.759 9.098 197.705 8.342 197.633 7.874H199.739ZM198.785 13.49C201.017 13.004 204.203 12.032 206.201 11.186C206.777 10.934 207.353 10.664 207.947 10.304L208.721 12.104C208.127 12.356 207.407 12.662 206.849 12.878C204.671 13.742 201.125 14.804 198.803 15.362L198.785 13.49ZM226.433 9.404C226.307 9.566 226.037 10.034 225.911 10.322C225.191 12.068 223.823 14.57 222.311 16.28C220.295 18.566 217.667 20.744 214.841 22.058L213.383 20.528C216.281 19.43 218.999 17.252 220.781 15.272C221.987 13.904 223.211 11.924 223.643 10.52C222.959 10.52 217.703 10.52 217.019 10.52C216.335 10.52 215.345 10.61 215.075 10.628V8.594C215.417 8.648 216.479 8.702 217.019 8.702C217.829 8.702 222.977 8.702 223.715 8.702C224.381 8.702 224.957 8.63 225.281 8.522L226.433 9.404ZM222.545 15.11C224.453 16.676 226.919 19.268 228.125 20.744L226.523 22.13C225.209 20.366 223.157 18.134 221.231 16.406L222.545 15.11Z" fill="#141414"/>
<path d="M34.3825 66.18C39.4625 62.34 42.4225 58.82 42.5025 54.38C42.5425 52.62 41.6625 51.18 40.6625 50.5C38.3425 57.1 33.7425 65.42 28.0625 65.42C23.6625 65.42 20.7425 61.5 21.0225 56.1C21.2625 51.02 23.8625 47.78 28.1425 45.58V43.7C28.1425 43.06 28.1425 42.42 28.1825 41.78H21.2225V36.38H28.3825C28.4225 35.26 28.4225 34.78 28.5025 32.86H34.0225C33.8225 34.5 33.7425 35.34 33.6625 36.38H47.7025V41.78H33.3025C33.3025 41.9 33.2225 42.5 33.2225 43.02L33.1825 44.18C40.5825 43.22 47.6625 46.14 47.9025 54.42C48.0225 58.42 46.3025 63.02 41.9425 66.18H34.3825ZM25.8225 56.14C25.5425 58.22 26.2225 59.98 28.1425 59.98C28.6625 59.98 29.0625 59.7 29.3425 59.46C28.8625 57.46 28.3825 54.54 28.2625 51.34C26.8225 52.82 26.0225 54.54 25.8225 56.14ZM33.0625 49.3C33.0625 51.06 33.1425 53.18 33.5025 55.26C34.3425 53.5 35.3025 51.1 35.7825 49.14C34.8225 48.98 33.7425 49.02 33.0625 49.3ZM66.4713 58.3C70.5113 58.34 73.7513 57.94 76.2313 57.06C81.0712 55.34 83.2313 51.78 82.8713 47.58C82.5512 44.02 80.5513 41.7 75.0713 41.54C71.9913 41.46 69.6313 42.1 61.5113 45.1V38.3C66.3113 36.38 70.7912 35.34 75.1913 35.34C83.7113 35.34 88.5913 39.26 89.1913 47.46C89.9913 58.18 82.5913 64.34 66.4713 64.34V58.3ZM117.383 59.26C121.903 59.02 124.623 57.46 125.103 52.66C125.503 48.78 123.983 44.9 121.863 44.5C120.343 49.74 119.423 52.5 117.983 55.62C116.463 59.14 113.663 63.46 109.223 63.66C104.743 63.54 102.703 58.38 102.943 53.54C103.103 50.58 104.183 46.62 106.903 43.02C106.143 40.14 105.663 36.58 105.543 34.14H110.863C110.983 36.34 111.103 37.54 111.343 39.38C113.143 38.3 115.303 37.74 117.743 37.74C117.983 36.06 118.143 34.82 118.343 32.3H124.183C123.823 35.3 123.783 35.62 123.263 38.58C129.463 40.7 131.703 46.9 131.143 53.18C130.463 60.78 125.063 65.22 117.383 65.54V59.26ZM107.903 53.58C107.823 55.06 108.063 57.38 109.543 57.38C110.663 57.38 111.343 56.58 111.983 55.7C111.023 54.14 109.863 52.14 108.863 49.74C108.263 51.06 107.983 52.22 107.903 53.58ZM112.583 45.38C112.903 46.62 113.583 48.54 114.623 50.54C115.423 48.42 116.103 46.14 116.623 43.94C115.463 43.9 113.743 44.38 112.583 45.38ZM152.389 65.38C149.229 64.46 147.269 62.46 147.269 59.26C147.269 58.42 147.429 57.5 148.029 56.3C149.229 53.98 151.469 52.42 155.389 53.18C158.789 53.86 160.549 55.58 161.949 58.78C163.109 57.62 163.509 56.1 163.509 54.66C163.509 51.62 161.749 50.06 157.429 50.18C153.149 50.3 150.509 51.98 148.469 53.7L143.749 57.62V50.02L156.229 40.58H145.749V34.34H165.429V39.94L158.309 45.18C160.749 44.7 162.749 44.82 164.349 45.54C167.389 46.9 169.349 50.38 169.429 54.54C169.509 59.1 167.149 62.46 163.669 64.26C160.469 65.9 155.989 66.46 152.389 65.38ZM152.629 57.98C151.989 59.02 152.749 60.22 154.389 60.82C155.629 61.22 157.429 60.98 157.829 60.9C157.149 59.02 155.949 57.5 154.229 57.3C153.349 57.18 152.909 57.54 152.629 57.98ZM201.776 65.14C197.736 64.34 196.176 61.02 196.176 56.5C196.176 55.78 196.176 55.5 196.216 54.7C196.296 53.18 196.336 52.1 195.816 51.54C195.296 50.98 194.696 50.82 193.656 51.14C191.456 51.82 191.056 54.58 190.376 56.98C189.616 59.7 188.936 62.74 188.296 65.46H181.976C182.856 61.74 183.696 58.3 184.496 55.22C186.096 49.02 188.256 41.22 190.816 33.34H197.576C196.016 37.7 194.896 41.02 193.416 45.98C195.816 43.98 202.216 44.86 201.736 52.62C201.696 53.46 201.656 55.14 201.696 56.3C201.736 57.26 201.856 58.46 203.416 58.86C204.976 59.26 207.456 57.7 209.896 54.7V62.46C207.096 64.78 204.976 65.78 201.776 65.14Z" fill="#141414"/>
</svg>
