<?xml version="1.0" encoding="UTF-8"?>
<svg id="_レイヤー_2" data-name="レイヤー_2" xmlns="http://www.w3.org/2000/svg" viewBox="0 0 123.97 38.61">
  <defs>
    <style>
      .cls-1 {
        fill: #64c3da;
      }

      .cls-2 {
        fill: #b5f058;
      }
    </style>
  </defs>
  <g id="_レイヤー_1-2" data-name="レイヤー_1">
    <g id="Freeasyロゴ">
      <g>
        <path class="cls-1" d="M0,20.4V7.16C0,2.54,2.71,0,7.63,0h8.53v4.22H7.86c-2.48,0-3.64.93-3.64,2.91v1.46h11.82v4.05H4.22v7.75H0Z"/>
        <path class="cls-1" d="M18.9,20.4v-11.26c0-3.37,1.4-4.87,4.55-4.87h6.7v3.76h-5.8c-1.13,0-1.58.44-1.58,1.58v10.8h-3.87Z"/>
        <path class="cls-1" d="M37.99,20.4c-3.7,0-5.74-1.94-5.74-5.45v-5.23c0-3.52,2.04-5.45,5.74-5.45h4.97c3.64,0,5.57,1.76,5.57,5.1s-1.83,4.81-5.6,4.81h-6.89v.71c0,1.14.66,1.72,1.95,1.72h9.78v3.79h-9.78ZM42.84,10.98c1.65,0,1.87-.72,1.87-1.43,0-1.02-.58-1.52-1.78-1.52h-4.94c-1.3,0-1.95.58-1.95,1.72v1.23h6.8Z"/>
        <path class="cls-2" d="M56.94,20.4c-3.7,0-5.74-1.94-5.74-5.45v-5.23c0-3.52,2.04-5.45,5.74-5.45h4.97c3.64,0,5.57,1.76,5.57,5.1s-1.83,4.81-5.6,4.81h-6.89v.71c0,1.14.66,1.72,1.95,1.72h9.78v3.79h-9.78ZM61.79,10.98c1.65,0,1.87-.72,1.87-1.43,0-1.02-.58-1.52-1.78-1.52h-4.94c-1.3,0-1.95.58-1.95,1.72v1.23h6.81Z"/>
        <path class="cls-1" d="M75.18,20.4c-3.62,0-5.54-1.75-5.54-5.07s1.82-4.81,5.57-4.81h6.89v-.76c0-1.14-.66-1.72-1.95-1.72h-9.58v-3.76h9.6c3.7,0,5.74,1.94,5.74,5.45v7.2c0,2.6-.9,3.48-3.56,3.48h-7.17ZM75.27,13.75c-1.59,0-1.81.67-1.81,1.4,0,.68.2,1.46,1.75,1.46h6.45c.43,0,.44-.09.44-.39v-2.48h-6.83Z"/>
        <path class="cls-1" d="M89.02,20.4v-3.79h9.31c1.35,0,1.61-.45,1.61-1.29s-.28-1.32-1.78-1.32h-3.63c-3.77,0-5.68-1.64-5.68-4.87s1.87-4.87,5.39-4.87h8.91v3.76h-8.88c-1.33,0-1.61.54-1.61,1.34,0,.71.13,1.26,1.78,1.26h3.6c3.84,0,5.71,1.55,5.71,4.73s-1.93,5.04-5.42,5.04h-9.31Z"/>
        <g>
          <polygon class="cls-1" points="118.97 15.92 119.6 14.45 115.52 14.24 114.71 16.14 118.97 15.92"/>
          <polygon class="cls-1" points="116.61 11.74 115.79 13.62 120.05 13.41 120.68 11.94 116.61 11.74"/>
          <polygon class="cls-1" points="123.28 5.88 123.97 4.27 119.83 4.27 119.04 6.09 123.28 5.88"/>
          <path class="cls-1" d="M109.98,16.53l.47,1.18c.49,1.24,1.08,1.98,2.65,2.12l-2.89,6.73h4.18l4.12-9.6-8.54-.43Z"/>
          <polygon class="cls-1" points="117.69 9.22 116.88 11.11 121.13 10.9 121.76 9.43 117.69 9.22"/>
          <path class="cls-1" d="M114.02,16.17c-.03-.06-.06-.13-.1-.24l-.73-1.81-3.69-.19,3.54-.18-.91-2.25-1.59-.08,1.53-.08-2.87-7.08h-4.11l4.83,12.11,4.1-.21Z"/>
          <polygon class="cls-1" points="118.77 6.71 117.96 8.6 122.2 8.39 122.84 6.92 118.77 6.71"/>
        </g>
      </g>
      <g>
        <path class="cls-1" d="M39.76,27.67c0,3.49-.92,6.18-2.77,8.06-1.64,1.66-3.88,2.59-6.73,2.8v-2.3c1.94-.28,3.49-.98,4.64-2.09,1.15-1.12,1.84-2.6,2.05-4.45h-8.11v-2.34h10.92v.31Z"/>
        <path class="cls-1" d="M45.35,34.1h-2.58v-6.91h2.58v6.91ZM53.1,31.32c0,2.61-.79,4.5-2.38,5.67-1.42,1.05-3.59,1.59-6.51,1.62v-2.3c2.27-.13,3.85-.51,4.75-1.14,1.02-.73,1.52-2.03,1.52-3.88v-4.09h2.62v4.12Z"/>
        <path class="cls-1" d="M67.17,33.4h-11.31v-2.39h11.31v2.39Z"/>
        <path class="cls-1" d="M75.72,33.67c-2.11-.24-4.12-.39-6.02-.45v-2.3c2.02.06,4.03.21,6.02.44v2.31ZM75.87,30c-2.3-.26-4.31-.42-6.02-.48v-2.3c2.08.07,4.08.22,6.02.44v2.34ZM80.97,29.09c-.21,3.37-1.3,5.83-3.28,7.36-1.77,1.36-4.34,2.05-7.72,2.07v-2.45c2.77-.05,4.79-.58,6.05-1.58,1.34-1.06,2.12-2.86,2.33-5.4h2.62ZM79.13,28.62h-1.47v-1.78h1.47v1.78ZM81.04,28.62h-1.47v-1.78h1.47v1.78Z"/>
        <path class="cls-1" d="M94.36,33.4h-11.31v-2.39h11.31v2.39Z"/>
      </g>
    </g>
  </g>
</svg>