<svg width="46" height="36" viewBox="0 0 46 36" fill="none" xmlns="http://www.w3.org/2000/svg">
<path fill-rule="evenodd" clip-rule="evenodd" d="M1.37868 1.37868C0.5 2.25736 0.5 3.67157 0.5 6.5V29.5C0.5 32.3284 0.5 33.7426 1.37868 34.6213C2.25736 35.5 3.67157 35.5 6.5 35.5H39.5C42.3284 35.5 43.7426 35.5 44.6213 34.6213C45.5 33.7426 45.5 32.3284 45.5 29.5V6.5C45.5 3.67157 45.5 2.25736 44.6213 1.37868C43.7426 0.5 42.3284 0.5 39.5 0.5H6.5C3.67157 0.5 2.25736 0.5 1.37868 1.37868ZM8.5547 9.66795C8.09517 9.3616 7.4743 9.48577 7.16795 9.9453C6.8616 10.4048 6.98577 11.0257 7.4453 11.3321L21.8906 20.9622C22.5624 21.4101 23.4376 21.4101 24.1094 20.9622L38.5547 11.3321C39.0142 11.0257 39.1384 10.4048 38.8321 9.9453C38.5257 9.48577 37.9048 9.3616 37.4453 9.66795L23 19.2981L8.5547 9.66795Z" fill="#150095"/>
</svg>
