<svg width="32" height="42" viewBox="0 0 32 42" fill="none" xmlns="http://www.w3.org/2000/svg">
<rect y="5" width="32" height="32" rx="16" fill="url(#paint0_linear_273_185)"/>
<path d="M10.7167 28.6055V26.4176L16.3428 21.1041C16.7873 20.7012 17.1137 20.34 17.3221 20.0205C17.5305 19.701 17.6694 19.4093 17.7389 19.1454C17.8222 18.8814 17.8639 18.6383 17.8639 18.4161C17.8639 17.8326 17.6625 17.3881 17.2596 17.0825C16.8706 16.763 16.2941 16.6032 15.5301 16.6032C14.9189 16.6032 14.3493 16.7213 13.8215 16.9575C13.3075 17.1936 12.8699 17.5617 12.5087 18.0618L10.0499 16.4782C10.6056 15.6447 11.3835 14.9849 12.3837 14.4987C13.3839 14.0125 14.5369 13.7694 15.8427 13.7694C16.9262 13.7694 17.8708 13.95 18.6765 14.3111C19.4961 14.6584 20.1282 15.1516 20.5727 15.7906C21.0311 16.4296 21.2603 17.1936 21.2603 18.0827C21.2603 18.555 21.1978 19.0273 21.0728 19.4996C20.9617 19.958 20.7255 20.4442 20.3643 20.9582C20.0171 21.4722 19.5031 22.0487 18.8224 22.6877L14.1549 27.0844L13.5089 25.855H21.7396V28.6055H10.7167Z" fill="white"/>
<defs>
<linearGradient id="paint0_linear_273_185" x1="0" y1="21" x2="32" y2="21" gradientUnits="userSpaceOnUse">
<stop stop-color="#0052D4"/>
<stop offset="0.5" stop-color="#4364F7"/>
<stop offset="1" stop-color="#4795EE"/>
</linearGradient>
</defs>
</svg>
