<svg width="32" height="42" viewBox="0 0 32 42" fill="none" xmlns="http://www.w3.org/2000/svg">
<rect y="5" width="32" height="32" rx="16" fill="url(#paint0_linear_273_383)"/>
<path d="M15.5514 28.8555C14.5374 28.8555 13.5302 28.7235 12.53 28.4596C11.5299 28.1818 10.6825 27.7928 9.9879 27.2927L11.3006 24.7089C11.8563 25.1118 12.5023 25.4313 13.2385 25.6674C13.9748 25.9036 14.718 26.0217 15.4681 26.0217C16.3155 26.0217 16.9823 25.855 17.4685 25.5216C17.9547 25.1882 18.1978 24.7297 18.1978 24.1463C18.1978 23.5906 17.9824 23.1531 17.5518 22.8336C17.1212 22.5141 16.4266 22.3543 15.4681 22.3543H13.9261V20.1247L17.9894 15.5197L18.3645 16.7283H10.7172V14.0194H20.9274V16.2073L16.885 20.8124L15.1764 19.833H16.1557C17.9477 19.833 19.3021 20.2359 20.219 21.0416C21.1358 21.8473 21.5942 22.8822 21.5942 24.1463C21.5942 24.9659 21.3789 25.7369 20.9483 26.4592C20.5176 27.1677 19.8578 27.7442 18.9687 28.1887C18.0797 28.6333 16.9406 28.8555 15.5514 28.8555Z" fill="white"/>
<defs>
<linearGradient id="paint0_linear_273_383" x1="0" y1="21" x2="32" y2="21" gradientUnits="userSpaceOnUse">
<stop stop-color="#0052D4"/>
<stop offset="0.5" stop-color="#4364F7"/>
<stop offset="1" stop-color="#4795EE"/>
</linearGradient>
</defs>
</svg>
