<svg width="38" height="39" viewBox="0 0 38 39" fill="none" xmlns="http://www.w3.org/2000/svg">
<path fill-rule="evenodd" clip-rule="evenodd" d="M16.5666 35.6868C16.5666 37.0675 17.6859 38.1868 19.0666 38.1868C20.4473 38.1868 21.5666 37.0675 21.5666 35.6868V21.999H35.1873C36.568 21.999 37.6873 20.8797 37.6873 19.499C37.6873 18.1182 36.568 16.999 35.1873 16.999H21.5666V3.3125C21.5666 1.93179 20.4473 0.8125 19.0666 0.8125C17.6859 0.8125 16.5666 1.93179 16.5666 3.3125V16.999H2.81299C1.43228 16.999 0.312988 18.1182 0.312988 19.499C0.312988 20.8797 1.43228 21.999 2.81299 21.999H16.5666V35.6868Z" fill="#150095"/>
</svg>
