<?xml version="1.0" encoding="UTF-8"?>
<svg id="_レイヤー_2" data-name="レイヤー_2" xmlns="http://www.w3.org/2000/svg" viewBox="0 0 77 65.13">
  <defs>
    <style>
      .cls-1 {
        fill: #41b5d0;
      }
    </style>
  </defs>
  <g id="_レイヤー_1-2" data-name="レイヤー_1">
    <g>
      <path class="cls-1" d="M21.99,64.3h-12.88V14.26L0,20.24V7.82L10.4.83h11.59v63.48Z"/>
      <path class="cls-1" d="M77,44.89c0,14.26-9.94,20.24-21.34,20.24s-21.34-5.98-21.34-20.24v-24.65C34.32,5.34,44.25,0,55.66,0s21.34,5.34,21.34,20.15v24.75ZM55.66,10.86c-5.8,0-8.56,3.68-8.56,10.49v22.45c0,6.81,2.76,10.49,8.56,10.49s8.46-3.68,8.46-10.49v-22.45c0-6.81-2.76-10.49-8.46-10.49Z"/>
    </g>
  </g>
</svg>