<svg width="86" height="86" viewBox="0 0 86 86" fill="none" xmlns="http://www.w3.org/2000/svg">
<rect x="2.5" y="2.5" width="81" height="81" rx="40.5" stroke="url(#paint0_linear_243_1205)" stroke-width="5"/>
<path d="M28.3324 64V58.12L43.4524 43.84C44.647 42.7573 45.5244 41.7867 46.0844 40.928C46.6444 40.0693 47.0177 39.2853 47.2044 38.576C47.4284 37.8667 47.5404 37.2133 47.5404 36.616C47.5404 35.048 46.999 33.8533 45.9164 33.032C44.871 32.1733 43.3217 31.744 41.2684 31.744C39.6257 31.744 38.095 32.0613 36.6764 32.696C35.295 33.3307 34.119 34.32 33.1484 35.664L26.5404 31.408C28.0337 29.168 30.1244 27.3947 32.8124 26.088C35.5004 24.7813 38.599 24.128 42.1084 24.128C45.0204 24.128 47.559 24.6133 49.7244 25.584C51.927 26.5173 53.6257 27.8427 54.8204 29.56C56.0524 31.2773 56.6684 33.3307 56.6684 35.72C56.6684 36.9893 56.5004 38.2587 56.1644 39.528C55.8657 40.76 55.231 42.0667 54.2604 43.448C53.327 44.8293 51.9457 46.3787 50.1164 48.096L37.5724 59.912L35.8364 56.608H57.9564V64H28.3324Z" fill="url(#paint1_linear_243_1205)"/>
<defs>
<linearGradient id="paint0_linear_243_1205" x1="0" y1="43" x2="86" y2="43" gradientUnits="userSpaceOnUse">
<stop stop-color="#0052D4"/>
<stop offset="0.5" stop-color="#4364F7"/>
<stop offset="1" stop-color="#4795EE"/>
</linearGradient>
<linearGradient id="paint1_linear_243_1205" x1="26" y1="43.5" x2="60" y2="43.5" gradientUnits="userSpaceOnUse">
<stop stop-color="#0052D4"/>
<stop offset="0.5" stop-color="#4364F7"/>
<stop offset="1" stop-color="#4795EE"/>
</linearGradient>
</defs>
</svg>
