<?xml version="1.0" encoding="UTF-8"?>
<svg id="_レイヤー_2" data-name="レイヤー_2" xmlns="http://www.w3.org/2000/svg" viewBox="0 0 252.66 131.83">
  <defs>
    <style>
      .cls-1 {
        fill: #0f9cbf;
      }
    </style>
  </defs>
  <g id="_レイヤー_1-2" data-name="レイヤー_1">
    <g>
      <path d="M10.77,26.6c0,3.57.04,4.94.3,6.61H2.91c.27-1.67.34-3.19.34-6.5V7.03c0-2.51-.08-3.76-.3-5.55,1.56.08,2.62.11,5.55.11h10.98c3.34,0,4.6-.04,6.38-.27v7.22c-1.67-.19-3.15-.27-6.35-.27h-8.74v6.23h7.14c2.96,0,4.41-.08,6.08-.27v7.03c-1.67-.19-3.19-.27-6.08-.27h-7.14v5.58Z"/>
      <path d="M45.81,16.87c-1.75-.53-2.7-.72-3.88-.72-1.94,0-3.42.68-4.52,2.05-.72.91-.99,1.71-1.14,3.38v5.93c0,2.43.08,3.88.3,5.7h-7.87c.23-1.9.3-3.27.3-5.74v-11.7c0-2.77-.08-4.1-.3-5.74h7.56v3c1.86-2.43,4.14-3.46,7.6-3.46,1.22,0,1.98.08,3.76.46l-1.82,6.84Z"/>
      <path d="M55.92,23.75c.38,3.08,2.17,4.71,5.17,4.71,1.52,0,2.85-.49,3.84-1.41.57-.53.84-.95,1.14-1.94l6.61,1.86c-.87,1.98-1.44,2.85-2.51,3.91-2.17,2.13-5.21,3.23-8.97,3.23s-6.65-1.06-8.81-3.23c-2.24-2.28-3.46-5.51-3.46-9.27,0-7.52,4.83-12.5,12.08-12.5,5.93,0,10.07,3.23,11.4,8.89.3,1.22.46,2.81.57,4.98,0,.15,0,.38.04.76h-17.1ZM65.8,18.5c-.53-2.43-2.17-3.72-4.79-3.72s-4.33,1.22-4.98,3.72h9.76Z"/>
      <path d="M82.06,23.75c.38,3.08,2.17,4.71,5.17,4.71,1.52,0,2.85-.49,3.84-1.41.57-.53.84-.95,1.14-1.94l6.61,1.86c-.87,1.98-1.44,2.85-2.51,3.91-2.17,2.13-5.21,3.23-8.97,3.23s-6.65-1.06-8.81-3.23c-2.24-2.28-3.46-5.51-3.46-9.27,0-7.52,4.83-12.5,12.08-12.5,5.93,0,10.07,3.23,11.4,8.89.3,1.22.46,2.81.57,4.98,0,.15,0,.38.04.76h-17.1ZM91.94,18.5c-.53-2.43-2.17-3.72-4.79-3.72s-4.33,1.22-4.98,3.72h9.76Z"/>
      <path d="M117.44,17.33c0-1.82-1.1-2.66-3.61-2.66s-3.72.8-4.29,2.66l-7.26-1.18c.76-2.24,1.6-3.46,3.19-4.6,2.05-1.44,4.86-2.17,8.55-2.17,2.81,0,5.55.53,7.03,1.33,2.43,1.33,3.5,3.42,3.5,6.84v10.26c0,2.32.08,3.69.27,5.4h-7.37v-1.75c-2.13,1.63-4.25,2.28-7.37,2.28-2.89,0-5.05-.68-6.57-2.09-1.37-1.25-2.09-3.08-2.09-5.17,0-2.39.95-4.29,2.77-5.55,1.94-1.37,4.48-2.17,7.9-2.47,1.48-.15,2.62-.19,5.36-.27v-.87ZM117.44,23.06c-3.38.08-5.01.27-6.57.76-1.37.46-2.2,1.41-2.2,2.51,0,1.37,1.14,2.17,3.12,2.17,1.56,0,3.27-.57,4.29-1.44.87-.76,1.37-1.79,1.37-2.92v-1.06Z"/>
      <path d="M135.49,25.46c.38,1.98,1.67,2.85,4.22,2.85,2.28,0,3.57-.65,3.57-1.82,0-.57-.3-1.06-.84-1.37-.53-.3-1.03-.46-3.12-.87-2.89-.57-4.37-.95-5.62-1.37-1.82-.68-3.08-1.56-3.8-2.7-.61-1.03-.95-2.32-.95-3.61,0-4.56,3.84-7.33,10.18-7.33,3.61,0,6.31.8,8.09,2.43,1.25,1.1,1.86,2.2,2.47,4.33l-7.33.8c-.19-1.56-1.14-2.24-3.19-2.24s-3.19.65-3.19,1.63.8,1.41,4.56,2.24c3.72.8,4.9,1.14,6.23,1.82,2.47,1.22,3.65,3.08,3.65,5.81,0,2.01-.68,3.84-1.94,5.05-1.82,1.82-4.94,2.77-9,2.77-4.79,0-8.17-1.29-9.99-3.8-.76-1.06-1.14-1.98-1.52-3.8l7.52-.84Z"/>
      <path d="M154.22,15.12c-1.63-3.8-1.79-4.14-2.28-5.09h8.25c.19,1.22.68,2.85,1.48,4.9l3.5,8.78,3.38-8.62c1.06-2.62,1.41-3.72,1.63-5.05h8.25q-.95,1.98-2.28,5.09l-8.7,20.1c-1.52,3.57-4.25,5.21-8.59,5.21-1.67,0-3.12-.19-5.21-.65l.84-6.04c1.25.65,1.98.84,2.96.84,1.44,0,2.51-.65,3.08-1.79l.8-1.63-7.1-16.03Z"/>
      <path d="M195.98.68c-.23.68-.27.68-.72,3.04-.19.91-.27,1.25-.46,2.13,2.43-.27,4.07-.53,5.28-.91l.11,6.16q-.91.08-2.81.3c-1.03.11-3.12.3-4.07.38-1.37,4.48-2.36,7.1-4.14,11.02-.8,1.75-1.14,2.43-2.62,5.39q-.49.95-.72,1.48l-6.19-3.38c2.7-3.61,5.32-9,7.03-14.36h-2.13q-.87,0-1.75-.04h-1.48v-6.08c1.44.27,3.19.38,5.55.38.42,0,.61,0,1.37-.04q.04-.3.34-1.6c.3-1.29.53-3.15.57-4.52l6.84.65ZM212.32,32.71c-1.41-1.63-2.85-2.85-4.9-4.14-.11,1.79-.57,2.89-1.6,3.95-1.48,1.48-4.14,2.36-7.18,2.36s-5.62-.91-7.18-2.51c-1.25-1.29-1.9-2.93-1.9-4.71,0-4.41,3.69-7.49,8.97-7.49.8,0,1.41.04,2.66.23-.11-1.44-.15-2.17-.15-3.04,0-1.56.08-2.77.23-4.48l6.27.27c-.3,1.33-.42,2.47-.42,4.29,0,1.37.08,2.51.3,4.41,2.32,1.03,4.1,2.05,5.85,3.38.11.08.72.57,1.86,1.48l-2.81,6ZM198.72,25.57c-1.79,0-2.92.76-2.92,1.94,0,1.1,1.06,1.82,2.7,1.82,1.9,0,2.89-.84,2.89-2.43,0-.27-.04-.8-.08-.84-1.03-.38-1.67-.49-2.58-.49ZM212.7,14.89c-3.57-2.24-7.29-3.95-11.82-5.47l3.15-5.24c4.79,1.71,7.9,3.08,11.44,5.13l-2.77,5.58Z"/>
      <path d="M228.36,8.36c-.53,2.05-1.18,5.62-1.63,9.23,3.19-2.05,6.54-2.96,10.87-2.96,6.76,0,11.25,3.53,11.25,8.93,0,3.27-1.56,6.19-4.29,8.05s-6.19,2.74-10.87,2.74c-3.12,0-5.81-.3-9.54-1.14-.11-3.15-.27-4.37-.87-6.76,3.76,1.18,7.29,1.79,10.14,1.79,5.02,0,8.36-1.79,8.36-4.48,0-2.01-1.98-3.19-5.4-3.19-2.85,0-5.74.76-8.32,2.28-.99.53-1.37.87-2.13,1.71l-6.31-.27c.08-.34.08-.38.11-.76.19-1.82.99-7.9,1.75-13.15.11-.83.19-1.44.23-2.43l6.65.42ZM227.67,0c1.86.95,4.14,1.75,7.75,2.7,2.58.68,5.85,1.37,7.64,1.63l-2.01,6.12c-6.88-1.41-11.97-2.93-16.41-4.98l3.04-5.47Z"/>
      <path d="M10.26,67.42c-2.24,1.71-3.42,3.31-3.42,4.67,0,1.98,2.47,2.85,8.25,2.85,4.48,0,9.92-.76,12.42-1.75l.46,7.29q-1.03.04-3.76.38c-3.19.42-6.35.61-9.46.61-4.29,0-7.33-.42-9.65-1.37-3.38-1.37-5.09-3.69-5.09-6.88,0-3.38,1.67-6.16,5.43-9.16l4.83,3.34ZM2.51,50.17c2.47.65,7.11,1.03,12.58,1.03,4.94,0,8.59-.23,10.56-.68l.15,5.81c-2.36,1.14-7.14,4.18-10.56,6.73l-4.67-3.23c1.1-.76,1.18-.8,3-1.9.49-.3.53-.34.91-.53.27-.15.3-.15.61-.34-1.25.11-1.82.15-3.12.15-2.89,0-4.79-.11-8.55-.46-.68-.08-.8-.08-1.33-.11l.42-6.46Z"/>
      <path d="M49.89,49.82c-.8,1.48-1.37,2.81-5.78,14.17,1.52-1.1,3.04-1.67,4.71-1.67,2.51,0,4.45,1.41,5.05,3.65.38,1.37.38,1.67.46,6.38,0,2.66.46,3.5,1.82,3.5,1.52,0,2.62-.99,3.53-3.08.87-2.05,1.41-4.41,1.56-7.03,2.2,1.9,3.31,2.58,6.04,3.8-.72,3.95-1.75,6.54-3.42,8.78-1.98,2.62-4.98,4.07-8.47,4.07-2.43,0-4.29-.65-5.55-1.98-1.29-1.33-1.82-2.96-1.82-5.66,0-.34,0-1.06.04-2.7v-.65c0-1.86-.42-2.47-1.6-2.47-1.75,0-3.57,1.75-5.05,4.94-1.14,2.39-2.43,6.23-2.96,8.74l-7.03-2.09c.68-1.33.76-1.52,3.04-8.13.3-.95,1.63-4.75,3.95-11.44,3.08-8.85,3.8-11.17,4.07-12.69l7.41,1.56Z"/>
      <path d="M85.2,48.68c-.23.68-.27.68-.72,3.04-.19.91-.27,1.25-.46,2.13,2.43-.27,4.07-.53,5.28-.91l.11,6.16q-.91.08-2.81.3c-1.03.11-3.12.3-4.07.38-1.37,4.48-2.36,7.1-4.14,11.02-.8,1.75-1.14,2.43-2.62,5.39q-.49.95-.72,1.48l-6.19-3.38c2.7-3.61,5.32-9,7.03-14.36h-2.13q-.87,0-1.75-.04h-1.48v-6.08c1.44.27,3.19.38,5.55.38.42,0,.61,0,1.37-.04q.04-.3.34-1.6c.3-1.29.53-3.15.57-4.52l6.84.65ZM101.53,80.71c-1.41-1.63-2.85-2.85-4.9-4.14-.11,1.79-.57,2.89-1.6,3.95-1.48,1.48-4.14,2.36-7.18,2.36s-5.62-.91-7.18-2.51c-1.25-1.29-1.9-2.93-1.9-4.71,0-4.41,3.69-7.49,8.97-7.49.8,0,1.41.04,2.66.23-.11-1.44-.15-2.17-.15-3.04,0-1.56.08-2.77.23-4.48l6.27.27c-.3,1.33-.42,2.47-.42,4.29,0,1.37.08,2.51.3,4.41,2.32,1.03,4.1,2.05,5.85,3.38.11.08.72.57,1.86,1.48l-2.81,6ZM87.93,73.57c-1.79,0-2.92.76-2.92,1.94,0,1.1,1.06,1.82,2.7,1.82,1.9,0,2.89-.84,2.89-2.43,0-.27-.04-.8-.08-.84-1.03-.38-1.67-.49-2.58-.49ZM101.91,62.89c-3.57-2.24-7.29-3.95-11.82-5.47l3.15-5.24c4.79,1.71,7.9,3.08,11.44,5.13l-2.77,5.58Z"/>
      <path d="M129.43,59.06c-.57.08-.68.08-1.44.23-1.48.27-3.88.57-5.74.76v3.34c2.2-.49,3.53-.65,5.55-.65,4.67,0,8.17,1.18,10.37,3.46,1.67,1.71,2.58,4.1,2.58,6.73,0,5.36-4.07,9.38-9.46,9.38-4.71,0-7.45-3.15-7.45-8.62v-.95c2.77-.8,3.69-1.18,5.77-2.32-.04.8-.08,1.22-.08,2.01,0,1.18.08,1.82.3,2.39.27.68.91,1.14,1.67,1.14,1.63,0,2.74-1.33,2.74-3.27,0-1.29-.68-2.55-1.86-3.34-1.03-.65-2.51-.99-4.52-.99-1.86,0-3.42.19-5.59.76l.04,6.72v.99c0,2.32-.15,3.15-.72,3.95-.72,1.06-2.17,1.67-3.88,1.67-2.81,0-6.04-1.18-8.21-3-1.56-1.33-2.47-3.12-2.47-4.94,0-2.05,1.25-4.29,3.53-6.31,1.52-1.33,3.12-2.28,5.66-3.38v-4.48l-2.89.08-3.69-.08c-.11,0-.46,0-.8.04l-.08-5.96c1.22.23,2.77.34,5.21.34h1.44q.53-.04.76-.04v-1.22c0-2.85-.04-3.72-.27-5.13h6.57c-.19,1.37-.23,2.24-.23,4.75v1.22c2.58-.27,4.94-.72,6.95-1.29l.19,6ZM116.24,71.1c-1.79.84-3.15,2.32-3.15,3.38,0,.46.27.84.84,1.22.53.34,1.25.61,1.71.61.49,0,.61-.27.61-1.52v-3.69ZM137.48,62.74c-1.94-3.38-4.1-5.97-7.49-8.93l5.02-3.38c3.23,2.62,5.58,5.28,7.49,8.4l-5.02,3.91Z"/>
      <path d="M143.87,65.21c.68-3,.95-5.21.95-8.25,0-.38,0-.95-.04-1.71l3.23.61v1.41c0,3.61-.27,6.5-.87,9.31l-3.27-1.37ZM154.17,78.59c0,2.28.04,3.65.15,4.94h-5.93c.15-1.33.23-3.19.23-5.24v-26.33c0-1.94-.08-2.89-.23-4.22h5.97c-.15,1.25-.19,2.17-.19,4.22v3.53l2.09-.87c.95,2.01,1.48,3.38,2.28,5.74l-2.81,1.29c-.61-2.39-.91-3.38-1.56-5.13v22.08ZM173.24,61.6c-.23.53-.3.68-.65,1.82-.53,1.63-1.25,3.42-1.98,4.94,1.18,1.22,1.29,1.37,2.89,3.23v-6.42c0-1.52-.04-2.62-.11-3.31h5.89c-.11,1.03-.15,1.86-.15,3.46v13.72c0,2.09.04,3.38.19,4.45h-5.81v-1.37h-12.16v1.37h-5.7c.11-1.18.19-2.62.19-4.67v-13.49c0-1.94-.04-2.43-.15-3.42h5.78c-.11.72-.11,1.18-.11,2.43l2.47-2.43c1.56,1.37,2.13,1.82,3.15,2.81.72-1.9,1.25-3.65,1.44-4.83l4.83,1.71ZM159.83,60.42c-.99-3.27-2.2-6.34-3.91-9.88l5.02-1.79c2.01,4.48,2.74,6.31,3.8,9.54l-4.9,2.13ZM161.35,72.89c1.18-.99,2.09-2.05,3.31-3.8-1.44-1.48-1.98-1.98-3.31-3.12v6.92ZM161.35,76.99h3.08c-.91-1.03-1.86-1.94-3.08-2.89v2.89ZM168.76,47.54c1.14,2.74,1.94,5.05,3.08,9.16,1.06-2.28,1.98-4.86,3-8.47l5.62,1.79c-2.13,5.85-2.74,7.41-4.75,11.4l-5.17-2.24c.49-.91.76-1.41,1.03-1.94l-4.83,1.56c-.95-3.91-1.82-6.65-3.12-9.73l5.13-1.52ZM170.77,76.61c-1.25-1.9-1.79-2.62-2.7-3.72-1.1,1.56-1.82,2.47-3.34,4.1h8.78v-3.53l-2.74,3.15Z"/>
      <path d="M186.96,49.6c.8.15,1.75.19,3.91.19,2.62,0,6.08-.15,7.86-.38.76-.08,1.06-.19,1.56-.46l4.1,3.5c-.38.53-.49.76-.91,1.82-.34.84-1.9,5.66-2.51,7.71,2.81.57,4.37.99,6.5,1.86.27-1.86.3-2.85.3-6.23,0-.87-.04-1.37-.15-2.17l6.61.23c-.19.91-.23,1.29-.27,2.77-.15,3.57-.3,5.28-.68,7.87q2.62,1.33,3.95,2.05c.68.38.83.46,1.29.61l-2.2,7.11c-1.06-.95-2.55-1.98-4.71-3.19-1.9,4.52-5.05,7.83-9.84,10.45-1.6-2.13-2.81-3.42-4.75-4.94,2.81-1.33,4.1-2.17,5.59-3.57,1.44-1.41,2.39-2.77,3.3-4.83-2.43-1.1-3.99-1.6-6.69-2.17-1.56,4.64-2.81,7.6-3.91,9.38-1.48,2.39-3.5,3.65-5.81,3.65-1.79,0-3.61-.8-4.94-2.17-1.52-1.56-2.32-3.72-2.32-6.23,0-3.72,1.79-6.95,4.9-8.97,2.01-1.29,4.14-1.86,7.52-2.05.68-2.24,1.25-4.18,1.79-6.34-1.67.15-3.76.27-6.31.38-1.37.04-1.82.08-2.92.23l-.27-6.12ZM189.2,69.35c-.72.84-1.06,1.82-1.06,2.89,0,1.18.57,2.05,1.29,2.05.87,0,1.86-1.98,3.57-7.03-1.79.3-2.85.87-3.8,2.09Z"/>
      <path d="M243.24,65.06c2.81-.19,3.76-.38,6.27-1.22,2.2,2.85,3.15,5.4,3.15,8.51,0,2.89-1.44,5.74-3.88,7.52-2.36,1.79-5.51,2.7-9.23,2.7-3.91,0-6.99-1.03-9.16-3-1.82-1.71-2.66-3.95-2.66-7.07,0-.84.04-1.67.11-2.81-1.18-.08-2.77-.34-4.9-.76-.76-.15-.99-.19-1.63-.23l.46-6.08c1.75.65,3.15.91,6.61,1.33.04-.38.23-1.67.53-3.8-1.52-.15-2.77-.38-5.24-.87-.57-.11-.8-.15-1.37-.27l.42-5.89c1.67.57,3.88.99,6.88,1.29.42-2.51.57-4.14.57-5.43v-.53l7.03.57c-.42,1.22-.57,2.05-1.1,5.55,3.72-.11,5.93-.38,8.25-.95l-.23,6.31q-.87.08-2.74.23c-2.51.23-3.69.27-6.23.27q-.04.49-.27,1.86c-.08.49-.11.8-.27,2.05h.8c2.96,0,5.66-.3,7.86-.87l-.04,1.6ZM243.12,69.58c-.38.04-.42.04-1.21.15-1.75.23-4.07.38-5.97.38-.38,0-.65,0-1.71-.04-.04.49-.08,1.22-.08,1.82,0,1.52.38,2.55,1.18,3.27.91.84,2.32,1.25,4.1,1.25,4.14,0,6.61-1.82,6.61-4.86,0-1.94-.95-3.99-2.81-6.04l-.11,4.07Z"/>
      <path class="cls-1" d="M71.19,130.35c-.57-2.05-.76-2.62-1.03-3.57-4.1,1.18-6.27,1.75-11.21,2.77-.27.08-.42.11-1.06.27l-1.1-5.97c.57-.04.87-.04,2.01-.19v-23.02c0-1.33-.04-2.28-.15-3.65,1.1.11,2.05.15,3.99.15h8.44c1.94,0,2.85-.04,3.95-.15-.08.87-.11,1.52-.11,3.61v12.5c0,1.41.04,2.32.11,3.15-1.03-.08-1.79-.11-3.08-.11h-7.52v6.61c1.71-.38,3-.68,4.03-.99-.53-1.25-.72-1.79-1.52-3.5l4.98-1.75c2.32,4.86,2.92,6.38,4.63,11.4v-27.32c0-1.48-.04-2.77-.11-3.61,1.25.11,2.36.15,3.46.15h8.51c1.37,0,2.05-.04,3.5-.15-.11,1.14-.15,1.9-.15,3.61v21.12c0,4.33-1.33,5.32-7.29,5.32h-.99c-.08-2.24-.3-3.42-1.1-5.96.87.11,2.09.23,2.58.23.95,0,1.18-.19,1.18-.95v-17.78h-3.91v24.43c0,2.01.08,3.53.23,4.63h-6.08c.11-1.03.15-1.6.19-3.42l-5.36,2.13ZM69.29,104.25v-2.05h-4.86v2.05h4.86ZM64.43,111.16h4.86v-2.09h-4.86v2.09Z"/>
      <path d="M112.19,100.03c-.27.42-.42.76-.72,1.37-.42.91-1.1,2.2-1.6,3.12,1.18-.04,1.79-.04,2.39-.11-.04.65-.08,1.06-.08,2.09,1.6-.8,2.01-1.1,2.77-2.01.65-.8.95-1.33,1.33-2.62h-.42c-1.44,0-2.36.04-3.19.15v-5.47c1.29.15,2.32.19,4.18.19h10.07c1.44,0,2.28-.04,3.27-.15q-.11.87-.46,5.93c-.27,3.57-.8,5.24-1.9,6.04-.8.57-1.9.8-4.14.8-.53,0-1.06,0-2.43-.08-.19-1.44-.3-2.17-.68-3.61-1.14,2.17-2.24,3.46-4.14,4.79l2.13.46c-.08.53-.15,1.1-.23,1.71h1.25c0-1.18-.04-1.82-.19-2.55h5.66c-.04.91-.04,1.48-.04,2.55h1.86c1.6,0,2.39-.04,3.15-.19v5.47c-.84-.11-1.79-.15-3.15-.15h-1.86v2.24h1.98c1.79,0,2.55-.04,3.69-.15v5.58c-1.1-.15-1.75-.19-3.69-.19h-1.98v2.17c0,1.98.04,2.85.23,4.1h-6.12c.19-1.29.23-2.17.23-4.1v-2.17h-2.74c-1.82,0-2.55.04-3.65.19v-5.58c1.22.11,1.63.15,3.46.15-1.52-.91-2.7-1.48-4.25-2.05v8.97c0,1.82-.38,2.77-1.37,3.46-.87.61-2.01.8-4.94.8h-1.56c-.19-2.09-.53-3.42-1.25-5.24,1.29.11,2.24.19,2.85.19,1.48,0,1.79-.11,1.79-.76v-2.81h-6.76c-.42,4.03-.91,5.93-2.32,8.78-1.56-2.17-2.43-3.12-4.07-4.37,1.63-3.15,2.05-6.46,2.05-16.95,0-1.56,0-2.05-.04-3-.68-.61-.99-.87-2.05-1.63,1.52-1.63,2.39-2.93,3.31-4.86.91-1.86,1.52-3.76,1.75-5.13l5.85.91c-.23.46-.3.65-.57,1.29h3.23c.91,0,1.29-.04,1.82-.15l2.28,2.62ZM102.77,117.92v-2.13h-1.52l-.04,2.13h1.56ZM101.33,109.3v2.09h1.44v-2.09h-1.44ZM104.48,104.51c.38-.76.53-1.06.91-2.01h-2.47c-.42.95-.61,1.25-.99,2.01h2.55ZM107.71,109.3h-1.44v2.09h1.44v-2.09ZM107.71,115.79h-1.44v2.13h1.44v-2.13ZM112.19,107.28v10.11c.57-1.37.91-2.36,1.18-3.61.19-.99.42-2.77.42-3.53v-.42l1.18.27c-.87-1.48-1.6-2.36-2.77-3.5v.68ZM119.37,119.97v-2.24h-2.09c-.15.53-.27.99-.65,2.24h2.74ZM121.84,101.85c-.34,1.41-.42,1.67-.72,2.54.61.04,1.14.08,1.48.08.68,0,1.03-.11,1.18-.42.19-.3.38-1.29.42-2.2h-2.36Z"/>
      <path d="M142.67,118.87c-1.44,5.17-2.96,9.08-4.98,12.65l-4.98-4.37c.61-.72.99-1.29,1.44-2.13,1.52-2.74,2.47-5.05,3.8-9.46l4.71,3.31ZM136.06,105.35c2.93,1.6,4.25,2.47,7.07,4.64l-3.27,4.83c-2.77-2.32-4.33-3.42-7.1-5.09l3.31-4.37ZM137.43,95.73c2.77,1.63,4.29,2.66,6.95,4.9l-3.65,4.67c-2.66-2.43-3.95-3.46-6.95-5.32l3.65-4.25ZM158.13,116.67c2.43,4.26,5.81,6.95,10.94,8.74-1.25,2.13-1.94,3.57-2.85,6.16-3.27-1.6-5.17-2.89-7.26-4.94-1.9-1.9-3.23-3.68-4.14-5.58-2.01,4.79-4.98,7.87-10.52,10.79-1.03-2.17-1.82-3.34-3.53-5.36,2.74-1.1,4.37-2.09,5.93-3.65,1.75-1.71,2.92-3.69,3.57-6.16h-2.43c-1.94,0-3.31.08-4.6.23v-5.89c1.29.11,2.66.19,4.56.19h3.08q.08-1.06.19-5.17h-1.98c-1.79,0-3.15.08-4.33.19v-5.74c1.33.15,2.62.19,4.33.19h1.94v-1.37c0-1.82-.08-2.43-.23-3.46h6.27c-.19,1.03-.23,1.67-.23,3.31v1.52h5.74c1.9,0,2.7-.04,3.69-.15-.11.8-.15,1.6-.15,2.89v7.75c1.25-.04,1.75-.08,2.66-.19v5.93c-1.33-.15-2.74-.23-4.52-.23h-6.12ZM160.45,111.2v-5.17h-3.65c0,2.05-.04,3.15-.15,5.17h3.8Z"/>
      <path d="M179.72,119.63c.08-.76.08-1.1.08-1.71q0-.72-.15-2.96l-.76-12.04c-.08-1.56-.27-3.27-.46-5.13h8.85c-.11.87-.34,3.53-.46,5.13l-.76,12.04c-.08,1.6-.11,2.36-.11,2.93,0,.38,0,.8.04,1.75h-6.27ZM179.04,129.4v-7.18h7.64v7.18h-7.64Z"/>
    </g>
  </g>
</svg>