<?xml version="1.0" encoding="UTF-8"?>
<svg id="_レイヤー_2" data-name="レイヤー 2" xmlns="http://www.w3.org/2000/svg" viewBox="0 0 723.38 48.64">
  <defs>
    <style>
      .cls-1 {
        fill: #000;
      }

      .cls-1, .cls-2 {
        stroke-width: 0px;
      }

      .cls-2 {
        fill: #0f9cbf;
      }
    </style>
  </defs>
  <g id="_レイヤー_1-2" data-name="レイヤー 1">
    <g>
      <path class="cls-1" d="M9.31,32.26c0,4.23.04,5.85.36,7.83H0c.31-1.98.41-3.78.41-7.69V9.09C.41,6.12.31,4.63.04,2.52c1.84.09,3.1.13,6.57.13h13c3.96,0,5.44-.04,7.56-.31v8.55c-1.98-.23-3.73-.32-7.51-.32h-10.35v7.38h8.46c3.51,0,5.22-.09,7.2-.32v8.33c-1.98-.22-3.78-.32-7.2-.32h-8.46v6.62Z"/>
      <path class="cls-1" d="M50.8,20.74c-2.07-.63-3.19-.86-4.59-.86-2.29,0-4.05.81-5.35,2.43-.85,1.08-1.17,2.02-1.35,4v7.02c0,2.88.09,4.59.36,6.75h-9.31c.27-2.25.36-3.87.36-6.79v-13.86c0-3.29-.09-4.86-.36-6.79h8.96v3.55c2.21-2.88,4.9-4.09,9-4.09,1.44,0,2.34.09,4.46.54l-2.16,8.1Z"/>
      <path class="cls-1" d="M62.77,28.89c.45,3.64,2.57,5.58,6.12,5.58,1.8,0,3.38-.58,4.54-1.67.67-.63.99-1.12,1.35-2.29l7.83,2.21c-1.04,2.34-1.71,3.37-2.97,4.63-2.57,2.52-6.17,3.82-10.62,3.82s-7.87-1.26-10.44-3.82c-2.65-2.7-4.09-6.53-4.09-10.98,0-8.91,5.71-14.8,14.31-14.8,7.02,0,11.92,3.83,13.5,10.53.36,1.44.54,3.33.68,5.89,0,.18,0,.45.04.9h-20.25ZM74.47,22.68c-.63-2.88-2.57-4.41-5.67-4.41s-5.13,1.44-5.89,4.41h11.56Z"/>
      <path class="cls-1" d="M93.73,28.89c.45,3.64,2.57,5.58,6.12,5.58,1.8,0,3.38-.58,4.54-1.67.67-.63.99-1.12,1.35-2.29l7.83,2.21c-1.04,2.34-1.71,3.37-2.97,4.63-2.57,2.52-6.17,3.82-10.62,3.82s-7.87-1.26-10.44-3.82c-2.65-2.7-4.09-6.53-4.09-10.98,0-8.91,5.71-14.8,14.31-14.8,7.02,0,11.92,3.83,13.5,10.53.36,1.44.54,3.33.68,5.89,0,.18,0,.45.04.9h-20.25ZM105.43,22.68c-.63-2.88-2.57-4.41-5.67-4.41s-5.13,1.44-5.89,4.41h11.56Z"/>
      <path class="cls-1" d="M125.46,30.91c.45,2.34,1.98,3.38,4.99,3.38,2.7,0,4.23-.76,4.23-2.16,0-.68-.36-1.26-.99-1.62-.63-.36-1.21-.54-3.69-1.04-3.42-.67-5.17-1.12-6.66-1.62-2.16-.81-3.64-1.84-4.5-3.19-.72-1.21-1.12-2.75-1.12-4.28,0-5.4,4.54-8.68,12.06-8.68,4.28,0,7.47.95,9.58,2.88,1.49,1.3,2.21,2.61,2.92,5.13l-8.68.95c-.22-1.85-1.35-2.66-3.78-2.66s-3.78.76-3.78,1.93.94,1.67,5.4,2.66c4.41.95,5.8,1.35,7.38,2.16,2.92,1.44,4.32,3.64,4.32,6.88,0,2.38-.81,4.54-2.29,5.98-2.16,2.16-5.85,3.29-10.67,3.29-5.67,0-9.67-1.53-11.83-4.5-.9-1.26-1.35-2.34-1.8-4.5l8.91-.99Z"/>
      <path class="cls-1" d="M147.64,18.67c-1.93-4.5-2.11-4.9-2.7-6.03h9.76c.22,1.44.81,3.38,1.75,5.8l4.14,10.39,4-10.21c1.26-3.1,1.67-4.41,1.93-5.98h9.76q-1.12,2.34-2.7,6.03l-10.3,23.8c-1.8,4.23-5.04,6.16-10.17,6.16-1.98,0-3.69-.22-6.17-.76l.99-7.15c1.48.76,2.34.99,3.51.99,1.71,0,2.97-.76,3.64-2.11l.95-1.94-8.42-18.99Z"/>
      <path class="cls-1" d="M197.1,1.58c-.27.81-.32.81-.86,3.6-.22,1.08-.31,1.48-.54,2.52,2.88-.31,4.82-.63,6.25-1.08l.13,7.29q-1.08.09-3.33.36c-1.22.13-3.69.36-4.82.45-1.62,5.31-2.79,8.42-4.9,13.05-.95,2.07-1.35,2.88-3.11,6.39q-.58,1.12-.85,1.75l-7.33-4c3.2-4.27,6.3-10.66,8.33-17.01h-2.52q-1.04,0-2.07-.04h-1.75v-7.2c1.71.32,3.78.45,6.57.45.5,0,.72,0,1.62-.04q.04-.36.4-1.89c.36-1.53.63-3.74.68-5.36l8.1.77ZM216.45,39.51c-1.67-1.93-3.38-3.37-5.8-4.9-.13,2.12-.67,3.42-1.89,4.68-1.75,1.75-4.91,2.79-8.5,2.79s-6.66-1.08-8.5-2.97c-1.48-1.53-2.25-3.46-2.25-5.58,0-5.22,4.37-8.86,10.62-8.86.95,0,1.67.04,3.15.27-.13-1.71-.18-2.56-.18-3.6,0-1.84.09-3.29.27-5.31l7.42.31c-.36,1.58-.49,2.92-.49,5.08,0,1.62.09,2.97.36,5.22,2.75,1.21,4.86,2.43,6.93,4,.13.09.86.67,2.21,1.75l-3.33,7.11ZM200.34,31.05c-2.11,0-3.46.9-3.46,2.29,0,1.3,1.26,2.16,3.2,2.16,2.25,0,3.42-.99,3.42-2.88,0-.31-.04-.94-.09-.99-1.21-.45-1.98-.58-3.06-.58ZM216.9,18.4c-4.23-2.66-8.64-4.68-13.99-6.48l3.73-6.21c5.67,2.02,9.36,3.64,13.54,6.07l-3.29,6.62Z"/>
      <path class="cls-1" d="M235.44,10.66c-.63,2.43-1.4,6.66-1.94,10.93,3.78-2.43,7.74-3.51,12.87-3.51,8.01,0,13.32,4.18,13.32,10.58,0,3.87-1.85,7.33-5.08,9.54-3.24,2.21-7.33,3.24-12.87,3.24-3.69,0-6.88-.36-11.29-1.35-.13-3.73-.32-5.17-1.04-8.01,4.46,1.39,8.64,2.11,12.01,2.11,5.94,0,9.9-2.11,9.9-5.31,0-2.38-2.34-3.78-6.39-3.78-3.38,0-6.79.9-9.85,2.7-1.17.63-1.62,1.04-2.52,2.03l-7.47-.32c.09-.41.09-.45.13-.9.22-2.16,1.17-9.36,2.07-15.57.14-.99.23-1.71.27-2.88l7.88.5ZM234.63.76c2.21,1.12,4.91,2.07,9.18,3.2,3.06.81,6.93,1.62,9.04,1.93l-2.38,7.25c-8.14-1.67-14.17-3.46-19.44-5.9l3.6-6.48Z"/>
      <path class="cls-1" d="M278.23,23.76c-2.66,2.03-4.05,3.92-4.05,5.54,0,2.34,2.92,3.38,9.76,3.38,5.31,0,11.74-.9,14.71-2.07l.54,8.64q-1.21.04-4.46.45c-3.78.5-7.51.72-11.2.72-5.08,0-8.68-.5-11.43-1.62-4-1.62-6.03-4.36-6.03-8.14,0-4,1.98-7.29,6.43-10.84l5.71,3.96ZM269.05,3.33c2.92.76,8.41,1.21,14.89,1.21,5.85,0,10.17-.27,12.51-.81l.18,6.88c-2.79,1.35-8.46,4.95-12.51,7.96l-5.54-3.83c1.31-.9,1.4-.94,3.55-2.25.58-.36.63-.41,1.08-.63.32-.18.36-.18.72-.4-1.49.13-2.16.18-3.69.18-3.42,0-5.67-.13-10.12-.54-.81-.09-.95-.09-1.58-.13l.5-7.65Z"/>
      <path class="cls-1" d="M325.17,2.92c-.94,1.75-1.62,3.33-6.84,16.78,1.8-1.3,3.6-1.98,5.58-1.98,2.97,0,5.26,1.66,5.98,4.32.45,1.62.45,1.98.54,7.56,0,3.15.54,4.14,2.16,4.14,1.8,0,3.11-1.17,4.18-3.64,1.04-2.43,1.67-5.22,1.85-8.32,2.61,2.25,3.91,3.06,7.15,4.5-.85,4.68-2.07,7.74-4.05,10.39-2.34,3.11-5.89,4.82-10.03,4.82-2.88,0-5.08-.76-6.57-2.34-1.53-1.58-2.16-3.51-2.16-6.71,0-.41,0-1.26.04-3.19v-.77c0-2.21-.49-2.92-1.89-2.92-2.07,0-4.23,2.07-5.98,5.85-1.35,2.83-2.88,7.38-3.51,10.35l-8.33-2.47c.81-1.58.9-1.8,3.6-9.63.36-1.12,1.93-5.62,4.68-13.54,3.64-10.48,4.5-13.23,4.81-15.03l8.77,1.84Z"/>
      <path class="cls-1" d="M366.97,1.58c-.27.81-.32.81-.86,3.6-.22,1.08-.31,1.48-.54,2.52,2.88-.31,4.82-.63,6.25-1.08l.13,7.29q-1.08.09-3.33.36c-1.22.13-3.69.36-4.82.45-1.62,5.31-2.79,8.42-4.9,13.05-.95,2.07-1.35,2.88-3.11,6.39q-.58,1.12-.85,1.75l-7.33-4c3.2-4.27,6.3-10.66,8.33-17.01h-2.52q-1.04,0-2.07-.04h-1.75v-7.2c1.71.32,3.78.45,6.57.45.5,0,.72,0,1.62-.04q.04-.36.4-1.89c.36-1.53.63-3.74.68-5.36l8.1.77ZM386.32,39.51c-1.67-1.93-3.38-3.37-5.8-4.9-.13,2.12-.67,3.42-1.89,4.68-1.75,1.75-4.91,2.79-8.5,2.79s-6.66-1.08-8.5-2.97c-1.48-1.53-2.25-3.46-2.25-5.58,0-5.22,4.37-8.86,10.62-8.86.95,0,1.67.04,3.15.27-.13-1.71-.18-2.56-.18-3.6,0-1.84.09-3.29.27-5.31l7.42.31c-.36,1.58-.49,2.92-.49,5.08,0,1.62.09,2.97.36,5.22,2.75,1.21,4.86,2.43,6.93,4,.13.09.86.67,2.21,1.75l-3.33,7.11ZM370.21,31.05c-2.11,0-3.46.9-3.46,2.29,0,1.3,1.26,2.16,3.2,2.16,2.25,0,3.42-.99,3.42-2.88,0-.31-.04-.94-.09-.99-1.21-.45-1.98-.58-3.06-.58ZM386.77,18.4c-4.23-2.66-8.64-4.68-13.99-6.48l3.73-6.21c5.67,2.02,9.36,3.64,13.54,6.07l-3.29,6.62Z"/>
      <path class="cls-1" d="M419.35,13.86c-.67.09-.81.09-1.71.27-1.75.32-4.59.68-6.79.9v3.96c2.61-.58,4.18-.77,6.57-.77,5.54,0,9.67,1.4,12.28,4.1,1.98,2.02,3.06,4.86,3.06,7.96,0,6.34-4.82,11.12-11.21,11.12-5.58,0-8.82-3.74-8.82-10.21v-1.12c3.29-.95,4.36-1.39,6.84-2.75-.04.95-.09,1.44-.09,2.38,0,1.4.09,2.16.36,2.83.32.81,1.08,1.35,1.98,1.35,1.93,0,3.24-1.58,3.24-3.87,0-1.53-.81-3.01-2.21-3.96-1.21-.76-2.97-1.17-5.35-1.17-2.21,0-4.05.22-6.61.9l.04,7.96v1.17c0,2.75-.18,3.74-.86,4.68-.85,1.26-2.56,1.98-4.59,1.98-3.33,0-7.15-1.39-9.72-3.55-1.84-1.58-2.92-3.69-2.92-5.85,0-2.43,1.49-5.08,4.19-7.47,1.8-1.58,3.69-2.7,6.7-4v-5.31l-3.42.09-4.36-.09c-.14,0-.54,0-.95.04l-.09-7.07c1.44.27,3.29.41,6.17.41h1.71q.63-.04.9-.04v-1.44c0-3.37-.04-4.41-.31-6.07h7.78c-.22,1.62-.27,2.66-.27,5.62v1.44c3.06-.31,5.85-.85,8.23-1.53l.22,7.11ZM403.74,28.12c-2.11.99-3.73,2.74-3.73,4,0,.54.31.99.99,1.44.63.41,1.49.72,2.03.72.58,0,.72-.31.72-1.8v-4.36ZM428.89,18.22c-2.29-4-4.86-7.06-8.87-10.57l5.94-4c3.82,3.11,6.61,6.25,8.86,9.94l-5.94,4.63Z"/>
      <path class="cls-1" d="M436.46,21.15c.81-3.56,1.12-6.17,1.12-9.76,0-.45,0-1.12-.04-2.03l3.83.72v1.67c0,4.28-.32,7.7-1.04,11.02l-3.87-1.62ZM448.65,36.99c0,2.7.04,4.32.18,5.85h-7.02c.18-1.58.27-3.78.27-6.21V5.44c0-2.29-.09-3.42-.27-4.99h7.07c-.18,1.48-.23,2.56-.23,4.99v4.19l2.48-1.04c1.12,2.38,1.75,4,2.7,6.79l-3.33,1.53c-.72-2.83-1.08-4-1.85-6.07v26.14ZM471.24,16.87c-.27.63-.36.81-.77,2.16-.63,1.93-1.48,4.05-2.34,5.85,1.4,1.44,1.53,1.62,3.42,3.83v-7.61c0-1.8-.04-3.1-.13-3.91h6.97c-.13,1.21-.18,2.2-.18,4.09v16.24c0,2.47.04,4,.22,5.26h-6.88v-1.62h-14.4v1.62h-6.75c.14-1.39.23-3.1.23-5.53v-15.97c0-2.29-.04-2.88-.18-4.05h6.84c-.13.85-.13,1.39-.13,2.88l2.92-2.88c1.84,1.62,2.52,2.16,3.74,3.33.85-2.25,1.48-4.32,1.71-5.71l5.71,2.02ZM455.35,15.48c-1.17-3.87-2.61-7.51-4.63-11.7l5.94-2.11c2.38,5.31,3.24,7.47,4.5,11.29l-5.8,2.52ZM457.15,30.24c1.4-1.17,2.47-2.43,3.92-4.5-1.71-1.76-2.34-2.34-3.92-3.69v8.19ZM457.15,35.1h3.64c-1.08-1.21-2.2-2.29-3.64-3.42v3.42ZM465.93.22c1.35,3.24,2.29,5.99,3.65,10.84,1.26-2.7,2.34-5.76,3.55-10.03l6.66,2.11c-2.52,6.93-3.24,8.78-5.62,13.5l-6.12-2.66c.58-1.08.9-1.67,1.21-2.29l-5.71,1.84c-1.12-4.63-2.16-7.87-3.69-11.52l6.07-1.8ZM468.31,34.65c-1.48-2.25-2.11-3.1-3.19-4.41-1.3,1.85-2.16,2.92-3.96,4.86h10.39v-4.19l-3.24,3.74Z"/>
      <path class="cls-1" d="M487.49,2.65c.95.18,2.07.23,4.63.23,3.11,0,7.2-.18,9.31-.45.9-.09,1.26-.22,1.85-.54l4.86,4.14c-.45.63-.58.9-1.08,2.16-.4.99-2.25,6.71-2.97,9.13,3.33.67,5.17,1.17,7.69,2.21.32-2.21.36-3.38.36-7.38,0-1.04-.04-1.62-.18-2.57l7.83.27c-.22,1.08-.27,1.53-.31,3.29-.18,4.23-.36,6.25-.81,9.31q3.11,1.58,4.68,2.43c.81.45.99.54,1.53.72l-2.61,8.42c-1.26-1.12-3.02-2.34-5.58-3.78-2.25,5.36-5.98,9.27-11.65,12.38-1.89-2.52-3.33-4.05-5.62-5.85,3.33-1.58,4.86-2.57,6.61-4.23,1.71-1.67,2.83-3.28,3.92-5.71-2.88-1.3-4.72-1.89-7.92-2.56-1.84,5.49-3.33,9-4.63,11.11-1.75,2.83-4.14,4.32-6.88,4.32-2.11,0-4.27-.95-5.85-2.57-1.8-1.84-2.74-4.41-2.74-7.38,0-4.41,2.11-8.23,5.8-10.62,2.38-1.53,4.9-2.21,8.91-2.43.81-2.66,1.49-4.95,2.12-7.51-1.98.18-4.46.31-7.47.45-1.62.04-2.16.09-3.46.27l-.32-7.25ZM490.14,26.05c-.86.99-1.26,2.16-1.26,3.42,0,1.39.67,2.43,1.53,2.43,1.04,0,2.21-2.34,4.23-8.32-2.12.36-3.38,1.04-4.5,2.47Z"/>
      <path class="cls-1" d="M554.13,20.97c3.33-.22,4.46-.45,7.42-1.44,2.61,3.38,3.74,6.39,3.74,10.08,0,3.42-1.71,6.79-4.59,8.91-2.79,2.11-6.52,3.19-10.93,3.19-4.63,0-8.28-1.21-10.84-3.55-2.16-2.02-3.15-4.68-3.15-8.37,0-.99.04-1.98.13-3.33-1.4-.09-3.29-.41-5.8-.9-.9-.18-1.17-.22-1.94-.27l.54-7.2c2.07.77,3.74,1.08,7.83,1.58.04-.45.27-1.98.63-4.5-1.8-.18-3.29-.45-6.21-1.04-.67-.13-.94-.18-1.62-.31l.5-6.97c1.98.67,4.59,1.17,8.14,1.53.5-2.97.68-4.9.68-6.43v-.63l8.32.67c-.5,1.44-.67,2.43-1.3,6.57,4.41-.14,7.02-.45,9.76-1.12l-.27,7.47q-1.04.09-3.24.27c-2.97.27-4.37.32-7.38.32q-.04.58-.32,2.21c-.09.58-.13.94-.31,2.43h.94c3.51,0,6.71-.36,9.32-1.04l-.05,1.89ZM554,26.32c-.45.04-.5.04-1.44.18-2.07.27-4.82.45-7.07.45-.45,0-.76,0-2.02-.04-.04.58-.09,1.44-.09,2.16,0,1.8.45,3.02,1.39,3.87,1.08.99,2.75,1.49,4.86,1.49,4.9,0,7.83-2.16,7.83-5.76,0-2.29-1.12-4.73-3.33-7.16l-.13,4.82Z"/>
      <path class="cls-2" d="M585.9,41.44c-.67-2.43-.9-3.11-1.21-4.23-4.86,1.4-7.42,2.07-13.27,3.29-.31.09-.5.13-1.26.32l-1.3-7.07c.67-.04,1.04-.04,2.38-.22V6.25c0-1.58-.04-2.7-.18-4.32,1.3.13,2.43.18,4.72.18h9.99c2.29,0,3.38-.04,4.68-.18-.09,1.04-.13,1.8-.13,4.28v14.8c0,1.67.04,2.75.13,3.74-1.21-.09-2.11-.13-3.64-.13h-8.91v7.83c2.02-.45,3.55-.81,4.77-1.17-.63-1.48-.86-2.12-1.8-4.14l5.89-2.07c2.75,5.76,3.46,7.56,5.49,13.5V6.21c0-1.75-.04-3.29-.13-4.28,1.49.13,2.79.18,4.09.18h10.08c1.62,0,2.43-.04,4.14-.18-.13,1.35-.18,2.25-.18,4.28v25.02c0,5.13-1.58,6.3-8.64,6.3h-1.17c-.09-2.66-.36-4.05-1.31-7.06,1.04.13,2.48.27,3.06.27,1.12,0,1.39-.22,1.39-1.12V8.55h-4.63v28.93c0,2.38.09,4.18.27,5.49h-7.2c.13-1.21.18-1.89.22-4.05l-6.34,2.52ZM583.65,10.53v-2.43h-5.76v2.43h5.76ZM577.89,18.72h5.76v-2.47h-5.76v2.47Z"/>
      <path class="cls-1" d="M634.46,5.53c-.32.5-.5.9-.86,1.62-.5,1.08-1.3,2.61-1.89,3.69,1.39-.04,2.11-.04,2.83-.14-.04.77-.09,1.26-.09,2.48,1.89-.95,2.38-1.31,3.28-2.38.77-.95,1.12-1.58,1.58-3.11h-.5c-1.71,0-2.79.04-3.78.18V1.39c1.53.18,2.74.23,4.95.23h11.92c1.71,0,2.7-.04,3.87-.18q-.14,1.04-.54,7.02c-.32,4.23-.95,6.21-2.25,7.15-.95.67-2.25.95-4.91.95-.63,0-1.26,0-2.88-.09-.22-1.71-.36-2.56-.81-4.27-1.35,2.56-2.66,4.09-4.91,5.67l2.52.54c-.09.63-.18,1.3-.27,2.02h1.49c0-1.39-.04-2.16-.23-3.01h6.71c-.04,1.08-.04,1.75-.04,3.01h2.21c1.89,0,2.83-.04,3.73-.22v6.48c-.99-.13-2.11-.18-3.73-.18h-2.21v2.65h2.34c2.12,0,3.01-.04,4.37-.18v6.62c-1.31-.18-2.07-.23-4.37-.23h-2.34v2.57c0,2.34.04,3.38.27,4.86h-7.24c.22-1.53.27-2.56.27-4.86v-2.57h-3.24c-2.16,0-3.02.04-4.32.23v-6.62c1.44.13,1.94.18,4.09.18-1.8-1.08-3.19-1.75-5.04-2.43v10.62c0,2.16-.45,3.28-1.62,4.09-1.04.72-2.38.94-5.85.94h-1.85c-.22-2.47-.63-4.05-1.48-6.21,1.53.13,2.65.22,3.38.22,1.75,0,2.11-.13,2.11-.9v-3.33h-8.01c-.49,4.77-1.08,7.02-2.74,10.39-1.85-2.57-2.88-3.69-4.82-5.17,1.94-3.74,2.43-7.65,2.43-20.07,0-1.84,0-2.43-.05-3.55-.81-.72-1.17-1.04-2.43-1.94,1.8-1.93,2.83-3.46,3.92-5.76,1.08-2.2,1.8-4.45,2.07-6.07l6.93,1.08c-.27.54-.36.76-.68,1.53h3.83c1.08,0,1.53-.04,2.16-.18l2.7,3.1ZM623.3,26.73v-2.52h-1.8l-.04,2.52h1.84ZM621.59,16.51v2.48h1.71v-2.48h-1.71ZM625.32,10.84c.45-.9.63-1.26,1.08-2.38h-2.92c-.5,1.12-.72,1.48-1.17,2.38h3.02ZM629.15,16.51h-1.71v2.48h1.71v-2.48ZM629.15,24.21h-1.71v2.52h1.71v-2.52ZM634.46,14.13v11.97c.67-1.62,1.08-2.79,1.39-4.27.22-1.17.5-3.29.5-4.19v-.49l1.39.31c-1.04-1.75-1.89-2.79-3.28-4.14v.81ZM642.96,29.16v-2.65h-2.47c-.18.63-.31,1.17-.76,2.65h3.24ZM645.89,7.69c-.4,1.67-.49,1.98-.85,3.01.72.04,1.35.09,1.75.09.81,0,1.21-.14,1.39-.5.23-.36.45-1.53.5-2.61h-2.79Z"/>
      <path class="cls-1" d="M670.55,27.85c-1.71,6.12-3.51,10.75-5.89,14.98l-5.89-5.17c.72-.85,1.17-1.53,1.71-2.52,1.8-3.24,2.92-5.99,4.5-11.21l5.58,3.92ZM662.72,11.83c3.46,1.89,5.04,2.92,8.37,5.49l-3.87,5.71c-3.28-2.75-5.13-4.05-8.41-6.03l3.92-5.17ZM664.34.45c3.29,1.93,5.08,3.15,8.24,5.8l-4.32,5.53c-3.15-2.88-4.68-4.09-8.23-6.3l4.32-5.04ZM688.86,25.24c2.88,5.04,6.88,8.23,12.96,10.35-1.48,2.52-2.29,4.23-3.37,7.29-3.87-1.89-6.12-3.42-8.59-5.85-2.25-2.25-3.83-4.36-4.91-6.61-2.38,5.67-5.89,9.31-12.46,12.78-1.21-2.57-2.16-3.96-4.18-6.34,3.24-1.3,5.17-2.48,7.02-4.32,2.07-2.02,3.46-4.36,4.23-7.29h-2.88c-2.29,0-3.92.09-5.45.27v-6.97c1.53.13,3.15.22,5.4.22h3.64q.09-1.26.22-6.12h-2.34c-2.11,0-3.73.09-5.13.22v-6.79c1.58.18,3.11.23,5.13.23h2.29v-1.62c0-2.16-.09-2.88-.27-4.09h7.42c-.23,1.21-.27,1.98-.27,3.92v1.8h6.79c2.25,0,3.2-.04,4.37-.18-.14.95-.18,1.89-.18,3.42v9.18c1.49-.04,2.07-.09,3.15-.22v7.02c-1.58-.18-3.24-.27-5.36-.27h-7.24ZM691.61,18.76v-6.12h-4.32c0,2.43-.04,3.73-.18,6.12h4.5Z"/>
      <path class="cls-1" d="M714.42,28.75c.09-.9.09-1.31.09-2.03q0-.85-.18-3.51l-.9-14.26c-.09-1.84-.32-3.87-.54-6.07h10.48c-.13,1.04-.41,4.18-.54,6.07l-.9,14.26c-.09,1.89-.14,2.79-.14,3.46,0,.45,0,.95.04,2.07h-7.42ZM713.61,40.32v-8.5h9.04v8.5h-9.04Z"/>
    </g>
  </g>
</svg>