<svg width="86" height="86" viewBox="0 0 86 86" fill="none" xmlns="http://www.w3.org/2000/svg">
<rect x="2.5" y="2.5" width="81" height="81" rx="40.5" stroke="url(#paint0_linear_243_1093)" stroke-width="5"/>
<path d="M41.3257 64.672C38.6004 64.672 35.8937 64.3173 33.2057 63.608C30.5177 62.8613 28.2404 61.816 26.3737 60.472L29.9017 53.528C31.395 54.6107 33.131 55.4693 35.1097 56.104C37.0884 56.7387 39.0857 57.056 41.1017 57.056C43.379 57.056 45.171 56.608 46.4777 55.712C47.7844 54.816 48.4377 53.584 48.4377 52.016C48.4377 50.5227 47.859 49.3467 46.7017 48.488C45.5444 47.6293 43.6777 47.2 41.1017 47.2H36.9577V41.208L47.8777 28.832L48.8857 32.08H28.3337V24.8H55.7737V30.68L44.9097 43.056L40.3177 40.424H42.9497C47.7657 40.424 51.4057 41.5067 53.8697 43.672C56.3337 45.8373 57.5657 48.6187 57.5657 52.016C57.5657 54.2187 56.987 56.2907 55.8297 58.232C54.6724 60.136 52.899 61.6853 50.5097 62.88C48.1204 64.0747 45.059 64.672 41.3257 64.672Z" fill="url(#paint1_linear_243_1093)"/>
<defs>
<linearGradient id="paint0_linear_243_1093" x1="0" y1="43" x2="86" y2="43" gradientUnits="userSpaceOnUse">
<stop stop-color="#0052D4"/>
<stop offset="0.5" stop-color="#4364F7"/>
<stop offset="1" stop-color="#4795EE"/>
</linearGradient>
<linearGradient id="paint1_linear_243_1093" x1="26" y1="43.5" x2="60" y2="43.5" gradientUnits="userSpaceOnUse">
<stop stop-color="#0052D4"/>
<stop offset="0.5" stop-color="#4364F7"/>
<stop offset="1" stop-color="#4795EE"/>
</linearGradient>
</defs>
</svg>
